<svg width="88" height="88" viewBox="0 0 88 88" fill="none" xmlns="http://www.w3.org/2000/svg">
<path fill-rule="evenodd" clip-rule="evenodd" d="M10.6916 51.208C10.5382 50.6596 10.4814 50.6091 9.83424 50.7268L7.19506 51.2017C6.28101 51.3698 5.6065 51.3803 4.95931 50.8487C4.65463 50.6091 4.45711 50.336 4.34154 50.0901L4.58109 49.9367C4.84795 50.3128 5.17574 50.4893 5.66324 50.4788C6.07298 50.4767 6.55417 50.4032 7.14883 50.296L9.67245 49.8422C10.3217 49.7245 10.3554 49.6488 10.3007 49.0437L10.5424 48.9995L10.9353 51.1639L10.6916 51.208Z" fill="#005D7F"/>
<path fill-rule="evenodd" clip-rule="evenodd" d="M6.4625 54.07L6.70204 54.0006C6.91427 54.5574 6.98571 54.6121 7.61609 54.4251L10.5158 53.5678C11.1462 53.3786 11.1777 53.2988 11.0538 52.7125L11.2912 52.6411L11.9216 54.7739L11.6841 54.8453C11.4698 54.2864 11.4026 54.2423 10.768 54.4293L7.87244 55.2866C7.24207 55.4715 7.20424 55.545 7.33032 56.1313L7.09288 56.2048L6.4625 54.07Z" fill="#005D7F"/>
<path fill-rule="evenodd" clip-rule="evenodd" d="M12.1016 58.3981L12.0932 58.3855C11.4544 58.417 10.8177 58.4759 10.202 58.52L10.7336 59.6967L12.1016 58.3981ZM8.8509 60.6318L9.07784 60.5288C9.32999 60.9259 9.42455 60.9407 9.6788 60.699C9.87842 60.5162 10.1558 60.2451 10.4374 59.9678L9.80278 58.5599C9.5086 58.5851 9.18711 58.6124 8.86561 58.6524C8.43065 58.7049 8.35501 58.7827 8.53361 59.3206L8.30458 59.4235L7.60275 57.8623L7.82549 57.7614C8.09235 58.1943 8.20582 58.2573 8.91815 58.2216L13.2257 58.0283L13.4485 58.2994C12.4231 59.2996 11.3535 60.3166 10.3449 61.3273C9.82799 61.8358 9.78597 61.9682 9.94146 62.4431L9.71452 62.5439L8.8509 60.6318Z" fill="#005D7F"/>
<path fill-rule="evenodd" clip-rule="evenodd" d="M17.6621 65.9183C17.4036 65.5905 17.225 65.5044 16.9162 65.6725C16.6997 65.7859 16.3908 65.9625 15.8193 66.3617L13.2768 68.1268L13.0877 67.8599L14.464 62.9429L14.4577 62.9303L12.9595 63.9705C12.3942 64.3634 12.1253 64.584 11.9488 64.7353C11.6714 64.9791 11.6588 65.1745 11.9446 65.6452L11.7428 65.7859L10.6796 64.252L10.8813 64.1113C11.1566 64.4517 11.3583 64.5378 11.6588 64.3634C11.8878 64.2436 12.1946 64.0755 12.7599 63.6847L14.1173 62.7391C14.5543 62.4365 14.63 62.3672 14.6951 62.1508C14.7666 61.9133 14.7203 61.7389 14.5522 61.4405L14.7561 61.2977L15.5125 62.384L14.3169 66.9395L14.3316 66.9606L15.6155 66.0696C16.1807 65.6746 16.4581 65.4329 16.6346 65.2943C16.893 65.0652 16.8909 64.8614 16.5989 64.3865L16.8006 64.2436L17.8659 65.7776L17.6621 65.9183Z" fill="#005D7F"/>
<path fill-rule="evenodd" clip-rule="evenodd" d="M20.139 72.2181C19.7923 71.9722 19.7377 71.9722 19.3889 72.3274L18.9476 72.7728C18.7522 72.9724 18.582 73.1489 18.4685 73.3318C18.0567 73.0754 17.462 72.7287 17.0207 72.2916C15.7663 71.0498 15.678 69.5096 16.7686 68.4085C18.023 67.1456 19.6767 67.5113 20.8114 68.6354C21.2632 69.0809 21.5784 69.6083 21.7213 69.85C21.5511 70.0517 21.2863 70.3774 20.9312 70.8228L20.7042 70.6758C21.2001 69.9004 21.0215 69.2679 20.4983 68.751C19.7734 68.0282 18.5862 68.0534 17.5923 69.0536C16.7812 69.8731 16.3315 71.1864 17.2939 72.1382C17.4326 72.2748 17.5965 72.3946 17.7394 72.4282C17.8886 72.4639 18.0188 72.4324 18.2058 72.2433L18.7017 71.7411C19.0884 71.3545 19.0947 71.283 18.5799 70.6758L18.7543 70.4993L20.3134 72.0416L20.139 72.2181Z" fill="#005D7F"/>
<path fill-rule="evenodd" clip-rule="evenodd" d="M27.2988 74.0501C26.9416 73.8357 26.742 73.8231 26.515 74.09C26.3532 74.2707 26.1242 74.5439 25.7355 75.1238L23.9935 77.6852L23.7246 77.5045L23.2476 72.4216L23.2329 72.4111L22.2117 73.9156C21.8229 74.4871 21.6527 74.7918 21.5414 74.9977C21.3711 75.3213 21.4279 75.5104 21.8649 75.8445L21.7242 76.0484L20.1797 74.9998L20.3184 74.7939C20.6966 75.0124 20.9152 75.0209 21.1379 74.7519C21.306 74.5565 21.5329 74.2875 21.9217 73.7202L22.8483 72.3564C23.1509 71.9152 23.1929 71.8227 23.1782 71.5958C23.1593 71.3478 23.0522 71.2029 22.7895 70.9864L22.9282 70.7784L24.0229 71.5244L24.542 76.2039L24.5588 76.2186L25.4413 74.9221C25.83 74.3548 26.0023 74.0291 26.1137 73.8357C26.2755 73.5331 26.1998 73.3419 25.7544 72.9994L25.8952 72.7956L27.4375 73.8441L27.2988 74.0501Z" fill="#005D7F"/>
<path fill-rule="evenodd" clip-rule="evenodd" d="M29.6826 76.1763L29.6679 76.1721C29.2098 76.6197 28.7707 77.0862 28.3336 77.5253L29.5103 78.0569L29.6826 76.1763ZM28.7202 80.0006L28.8211 79.7758C29.2708 79.9018 29.3527 79.8556 29.3863 79.5026C29.4115 79.2336 29.4431 78.8491 29.4704 78.4541L28.0646 77.8153C27.8587 78.0296 27.6339 78.2608 27.4216 78.5024C27.1296 78.8323 27.1233 78.9395 27.6129 79.2294L27.512 79.4564L25.9508 78.7504L26.0537 78.5255C26.537 78.6747 26.661 78.6453 27.1758 78.1473L30.2815 75.1551L30.6303 75.2118C30.5168 76.6407 30.3865 78.1095 30.2983 79.5341C30.2499 80.2591 30.3046 80.3851 30.7332 80.6394L30.6303 80.8642L28.7202 80.0006Z" fill="#005D7F"/>
<path fill-rule="evenodd" clip-rule="evenodd" d="M38.8366 78.1607C38.4247 78.0809 38.2356 78.1355 38.1159 78.4675C38.0276 78.6923 37.912 79.0327 37.7418 79.7051L36.998 82.7141L36.6807 82.6364L34.4702 78.0325L34.4555 78.0283L34.0184 79.7934C33.8503 80.4658 33.7999 80.8125 33.7642 81.0415C33.7158 81.4051 33.8356 81.5605 34.3609 81.7265L34.3021 81.9661L32.4887 81.5164L32.5496 81.2769C32.9762 81.3504 33.1863 81.2811 33.2998 80.9512C33.3922 80.7116 33.5141 80.3817 33.6801 79.7114L34.0751 78.1103C34.2054 77.5913 34.2159 77.4925 34.1214 77.2845C34.0184 77.0596 33.8671 76.9588 33.5435 76.8453L33.6045 76.6037L34.8925 76.9252L36.998 81.1361L37.0211 81.1403L37.3972 79.6211C37.5632 78.9529 37.6116 78.5915 37.6515 78.3666C37.6956 78.0283 37.5611 77.8728 37.0274 77.711L37.0862 77.4694L38.8975 77.917L38.8366 78.1607Z" fill="#005D7F"/>
<path fill-rule="evenodd" clip-rule="evenodd" d="M52.6649 77.6292C52.2342 77.7259 52.0724 77.8898 52.0892 78.1903C52.0871 78.4151 52.1123 78.724 52.209 79.3208L52.3308 80.0772C52.4695 80.924 52.4464 81.5964 52.085 82.1281C51.7887 82.542 51.3075 82.811 50.7717 82.8971C50.2905 82.977 49.8072 82.9433 49.4122 82.7248C48.9121 82.4537 48.6137 81.92 48.4687 81.0249L48.1703 79.1821C48.0569 78.4803 47.9791 78.4466 47.3887 78.4866L47.3508 78.2407L49.5298 77.8856L49.5677 78.1315C49.0024 78.2701 48.9436 78.3269 49.0571 79.0392L49.3302 80.7286C49.5214 81.9074 50.0678 82.5147 50.9482 82.376C51.9253 82.2142 52.1753 81.3821 51.9673 80.1066L51.8496 79.3796C51.753 78.7849 51.671 78.4824 51.5996 78.2596C51.5134 77.9823 51.3159 77.8793 50.7843 77.936L50.7465 77.6902L52.625 77.3876L52.6649 77.6292Z" fill="#005D7F"/>
<path fill-rule="evenodd" clip-rule="evenodd" d="M58.0507 75.8444C57.6619 75.9957 57.5317 76.1469 57.6073 76.4894C57.6556 76.729 57.7376 77.0736 57.9603 77.7355L58.9416 80.6731L58.6348 80.7802L54.2999 78.078L54.2831 78.0822L54.8631 79.8094C55.0816 80.4608 55.2224 80.7844 55.3169 80.9967C55.4703 81.3287 55.6552 81.4001 56.1869 81.253L56.2646 81.4884L54.4953 82.083L54.4176 81.8435C54.8168 81.6796 54.9597 81.5094 54.8778 81.169C54.8252 80.9168 54.7517 80.5764 54.5311 79.9187L54.0078 78.3554C53.8376 77.849 53.7914 77.7586 53.6023 77.6367C53.3943 77.5002 53.2136 77.496 52.8816 77.5737L52.7996 77.3384L54.0583 76.9181L58.0948 79.3409L58.1179 79.3325L57.6199 77.849C57.4014 77.1976 57.2501 76.8635 57.1639 76.6554C57.019 76.3424 56.8193 76.2877 56.2814 76.4348L56.2037 76.1995L57.9729 75.609L58.0507 75.8444Z" fill="#005D7F"/>
<path fill-rule="evenodd" clip-rule="evenodd" d="M60.6679 79.8248L60.5586 79.6042C61.0734 79.2995 61.1133 79.2217 60.8276 78.6292L59.508 75.9102C59.2222 75.3155 59.136 75.2987 58.5792 75.5172L58.4699 75.2945L60.4703 74.3216L60.5796 74.5443C60.0627 74.8511 60.0291 74.9247 60.3191 75.5172L61.6386 78.2362C61.9244 78.8267 62.0022 78.8498 62.559 78.6334L62.6683 78.854L60.6679 79.8248Z" fill="#005D7F"/>
<path fill-rule="evenodd" clip-rule="evenodd" d="M65.5684 71.463C65.1713 71.7865 65.1124 71.9252 65.2511 72.7027C65.3667 73.3058 65.7386 75.2557 66.1084 76.9178L65.8311 77.1006C64.6144 76.1971 63.0553 75.0687 62.2421 74.4993C61.7252 74.1337 61.5697 74.1231 61.1494 74.3438L61.0107 74.1294L62.8199 72.9485L62.9607 73.1629C62.5321 73.5243 62.5657 73.5978 62.8515 73.8185C63.3579 74.1988 64.6922 75.1675 65.5201 75.7558L65.539 75.7432C65.2994 74.6254 65.0473 73.457 64.8477 72.7363C64.709 72.2236 64.6438 72.1564 64.0702 72.44L63.9294 72.2236L65.4297 71.2486L65.5684 71.463Z" fill="#005D7F"/>
<path fill-rule="evenodd" clip-rule="evenodd" d="M71.2706 71.0836C71.4451 71.3546 71.8023 71.9913 71.9052 72.2098L69.0055 74.7776L68.8416 74.5927C69.3081 74.1052 69.327 74.0169 68.8983 73.5357L66.8958 71.2727C66.4419 70.7663 66.3684 70.781 65.9061 71.1277L65.7422 70.9407L68.4213 68.5684C68.5285 68.6776 68.913 69.0538 69.2408 69.3753L69.0685 69.577C68.8206 69.4026 68.602 69.2975 68.4108 69.2702C68.2154 69.2366 68.0242 69.3353 67.6649 69.6505L67.3224 69.9531C67.1186 70.1338 67.1123 70.1632 67.2783 70.346L68.4003 71.6194L68.8458 71.2223C69.3585 70.7726 69.3858 70.6864 69.1021 70.2094L69.2913 70.0414L70.3083 71.1907L70.1192 71.3609C69.6779 71.0163 69.5896 71.0415 69.0874 71.4828L68.6357 71.8842L69.5518 72.9159C69.7977 73.1953 69.949 73.3109 70.1108 73.2689C70.2726 73.229 70.4806 73.0546 70.7243 72.8402C71.0794 72.5271 71.2286 72.3212 71.2286 72.0544C71.2307 71.8337 71.1656 71.5522 71.05 71.2181L71.2706 71.0836Z" fill="#005D7F"/>
<path fill-rule="evenodd" clip-rule="evenodd" d="M72.2416 68.2123C72.4643 67.9476 72.5904 67.7206 72.5925 67.4748C72.5967 67.1218 72.437 66.836 72.1323 66.5733C71.4956 66.0333 70.9367 66.2203 70.6194 66.5901C70.487 66.7477 70.4345 66.857 70.4345 66.9284C70.4345 67.002 70.4912 67.0671 70.6236 67.1848L72.0693 68.4161L72.2416 68.2123ZM76.0364 67.6618C75.9965 67.7101 75.9356 67.7689 75.8746 67.8404C75.3052 68.454 74.9522 68.5506 74.3596 68.4834C73.9562 68.4329 73.4687 68.3237 73.0232 68.2396C72.7648 68.1955 72.603 68.2312 72.4034 68.4645L72.2878 68.601L73.1766 69.3596C73.6683 69.7757 73.7671 69.7672 74.1873 69.3449L74.3764 69.5046L72.935 71.1961L72.7459 71.0364C73.0947 70.551 73.0926 70.446 72.603 70.0299L70.2979 68.0673C69.8167 67.6534 69.7242 67.6639 69.3103 68.0673L69.1212 67.9076L70.4681 66.3296C70.8841 65.8379 71.1909 65.5899 71.5439 65.4954C71.9054 65.3924 72.3004 65.4555 72.666 65.7664C73.1787 66.2035 73.1934 66.7835 73.0127 67.3424C73.2733 67.4054 73.8616 67.5063 74.2819 67.5588C74.7757 67.6282 75.0572 67.6513 75.3052 67.6429C75.5679 67.6282 75.7339 67.5777 75.8914 67.4769L76.0364 67.6618Z" fill="#005D7F"/>
<path fill-rule="evenodd" clip-rule="evenodd" d="M74.9083 62.2943C74.4166 62.1535 73.8072 62.0715 73.4584 62.6095C73.1873 63.0276 73.3239 63.4752 73.6917 63.7147C74.0972 63.9753 74.4775 63.8429 75.1142 63.471C75.8202 63.0507 76.5031 62.7523 77.1797 63.1915C77.9005 63.658 78.0686 64.6372 77.4739 65.5596C77.3121 65.8076 77.1314 66.003 76.9591 66.1396C76.7931 66.2825 76.6712 66.3686 76.5809 66.4212C76.3897 66.3791 75.7824 66.106 75.3874 65.9189L75.4714 65.6563C75.9505 65.7992 76.8856 65.9084 77.2974 65.2718C77.579 64.8347 77.4676 64.3829 77.0327 64.1013C76.6166 63.8324 76.1732 63.99 75.5975 64.3094C74.9293 64.6981 74.2401 65.0091 73.5761 64.5783C72.8932 64.135 72.6978 63.2461 73.2777 62.3447C73.5173 61.9749 73.8472 61.7101 74.0068 61.5819C74.2527 61.7059 74.5595 61.8467 75.0007 62.0484L74.9083 62.2943Z" fill="#005D7F"/>
<path fill-rule="evenodd" clip-rule="evenodd" d="M78.96 62.8815L78.7415 62.768C78.9705 62.2154 78.9558 62.1272 78.3674 61.8288L75.6799 60.4546C75.0958 60.152 75.0138 60.1898 74.7007 60.7004L74.4801 60.5848L75.4929 58.6096L75.7157 58.7231C75.4824 59.2715 75.5034 59.3535 76.0897 59.6519L78.7793 61.0303C79.3655 61.3287 79.4412 61.2993 79.7543 60.7887L79.9749 60.9042L78.96 62.8815Z" fill="#005D7F"/>
<path fill-rule="evenodd" clip-rule="evenodd" d="M78.5105 54.4681C78.1071 54.4198 77.857 54.424 77.6826 54.4912C77.4935 54.5626 77.3905 54.7034 77.214 55.1762L77.067 55.5671L80.5614 56.8677C81.1665 57.0905 81.2464 57.0484 81.5342 56.4034L81.7654 56.4895L80.9249 58.7568L80.6937 58.6664C80.8829 58.0213 80.8492 57.931 80.2483 57.7103L76.756 56.4118L76.6362 56.7312C76.4135 57.3321 76.4345 57.496 76.5332 57.6515C76.6173 57.8049 76.819 57.9709 77.1279 58.1873L77.0354 58.4332C76.5543 58.221 76.0605 57.9898 75.6885 57.8343L75.7516 57.6641C75.9596 57.62 76.01 57.5296 76.0836 57.3279L77.1636 54.424C77.2351 54.2349 77.2225 54.1298 77.1321 53.9564L77.193 53.7883C77.504 53.906 78.1218 54.092 78.5799 54.2201L78.5105 54.4681Z" fill="#005D7F"/>
<path fill-rule="evenodd" clip-rule="evenodd" d="M78.7835 48.6234C78.7331 49.1277 78.8214 49.2811 79.2164 49.6635C79.6388 50.0669 79.9624 50.3653 80.5822 50.8822C80.7587 51.0293 80.8449 51.0692 81.0571 51.1176L82.0573 51.3235C82.7255 51.4643 82.7823 51.4118 82.9777 50.7436L83.2214 50.7898L82.7318 53.1348L82.4902 53.0823C82.5826 52.4246 82.5427 52.3426 81.8745 52.2018L80.9647 52.0127C80.7903 51.977 80.7083 51.9938 80.515 52.0463C80.0359 52.1829 79.4686 52.351 78.6197 52.6326C78.0502 52.8133 77.9451 52.9121 77.8023 53.3323L77.5585 53.2819L77.983 51.25L78.2225 51.2983C78.1868 51.8215 78.2834 51.8257 78.5734 51.7522C79.187 51.5799 79.8405 51.376 80.473 51.1848C80.0674 50.8465 79.4223 50.2981 79.0021 50.0081C78.6974 49.8022 78.6091 49.8001 78.42 50.359L78.1784 50.3107L78.5419 48.5751L78.7835 48.6234Z" fill="#005D7F"/>
<path fill-rule="evenodd" clip-rule="evenodd" d="M43.692 13.1308C43.6269 13.1308 43.5638 13.135 43.5008 13.135L66.0705 42.7039L64.7719 43.9395C64.3895 44.3051 55.2679 52.7732 40.2502 48.0327C40.2249 48.0264 40.1955 48.0201 40.1955 48.0201L40.1178 47.9928C40.0232 47.9592 31.2568 45.03 25.1211 46.1857L23.6061 48.2828C27.735 48.0264 34.0725 48.1525 40.6872 50.2349C50.5421 53.3426 61.8217 50.2349 65.3266 46.4946L67.0265 44.7632L68.2957 46.4946L72.5003 52.1029L73.5741 53.5275L72.2776 54.7559C71.7523 55.2602 59.0817 67.0042 38.6091 60.734C38.4935 60.7025 27.5354 57.2754 16.9051 60.5197C22.3789 69.5909 32.3242 75.6551 43.692 75.6551C60.956 75.6551 74.9525 61.6607 74.9525 44.3934C74.9525 27.1273 60.956 13.1308 43.692 13.1308ZM74.8285 74.8251C66.5916 83.062 55.6461 87.5966 43.9988 87.5966C32.3536 87.5966 21.406 83.062 13.1691 74.8251C4.93635 66.5945 0.399728 55.6427 0.399728 43.9983C0.399728 32.351 4.93635 21.4056 13.1691 13.1707C21.406 4.93796 32.3536 0.39924 43.9988 0.39924C55.6461 0.39924 66.5916 4.93796 74.8285 13.1707C83.0613 21.4056 87.6 32.351 87.6 43.9983C87.6 55.6427 83.0613 66.5945 74.8285 74.8251ZM75.1101 12.887C66.8017 4.57865 55.7512 0 43.9988 0C32.2486 0 21.1938 4.57865 12.8875 12.887C4.57914 21.1975 0.000488281 32.2481 0.000488281 43.9983C0.000488281 55.7519 4.57914 66.8004 12.8875 75.1109C21.1938 83.4193 32.2486 88 43.9988 88C55.7512 88 66.8017 83.4193 75.1101 75.1109C83.4227 66.8004 87.9992 55.7519 87.9992 43.9983C87.9992 32.2481 83.4227 21.1975 75.1101 12.887ZM43.9988 85.5352C21.0951 85.5352 2.46107 66.9012 2.46107 43.9983C2.46107 21.0967 21.0951 2.46268 43.9988 2.46268C66.9026 2.46268 85.5345 21.0967 85.5345 43.9983C85.5345 66.9012 66.9026 85.5352 43.9988 85.5352ZM43.9988 1.39944C20.4752 1.39944 1.40203 20.4705 1.40203 43.9983C1.40203 67.5253 20.4752 86.5943 43.9988 86.5943C67.5245 86.5943 86.5998 67.5253 86.5998 43.9983C86.5998 20.4705 67.5245 1.39944 43.9988 1.39944ZM39.7459 56.8929C54.5072 61.4148 64.6143 55.5649 68.1444 52.9686L66.4382 50.6929C60.624 55.2813 49.0061 57.1619 39.231 53.968C29.519 50.7896 19.9078 52.8446 19.8091 52.8677L15.2599 54.0373L22.3138 43.223L22.7424 42.6283L23.4527 42.4497C30.7483 40.6258 40.9751 44.053 41.3722 44.1874C51.0969 47.291 57.8188 43.9899 60.5904 42.1261L43.4462 19.6657L29.5295 39.8567C29.5295 39.8567 29.1639 39.7643 26.9597 39.8883C25.1904 39.9891 24.3877 40.256 24.3877 40.256L41.721 15.1123L43.089 13.1476C26.1045 13.467 12.4295 27.329 12.4295 44.3934C12.4295 48.8459 13.3645 53.0737 15.0413 56.9055C26.6697 53.0884 39.189 56.7374 39.7459 56.8929Z" fill="#005D7F"/>
<path fill-rule="evenodd" clip-rule="evenodd" d="M17.3799 17.2534C17.3799 17.2534 17.3715 17.245 17.3694 17.2492C17.3316 17.2492 17.2581 17.2492 17.2223 17.2681C17.2013 17.2828 17.1824 17.2849 17.1698 17.2891C17.0984 17.3143 17.0332 17.3522 16.9702 17.3858C16.9618 17.3879 16.9555 17.3921 16.9555 17.3921C16.9387 17.411 16.9198 17.4278 16.9114 17.4467L16.8966 17.453L16.9008 17.4614C16.8861 17.4677 16.8609 17.4782 16.8525 17.4908L16.8462 17.495C16.8252 17.5161 16.8168 17.5287 16.8 17.5497C16.7727 17.5707 16.7454 17.6043 16.7222 17.6274C16.6781 17.6484 16.5688 17.7976 16.5478 17.8355C16.5352 17.8502 16.5289 17.8691 16.5058 17.8796L16.51 17.8754C16.5058 17.8796 16.51 17.8859 16.51 17.8859L16.5058 17.8796L16.4995 17.8838C16.4974 17.8985 16.4848 17.9111 16.4785 17.9195L16.4722 17.9237C16.4323 17.972 16.3923 18.0204 16.3545 18.0687L16.3482 18.0729C16.3188 18.1023 16.2936 18.1464 16.2684 18.1759C16.2495 18.199 16.2221 18.2179 16.2074 18.2389L16.2011 18.2473C16.1444 18.3166 16.0814 18.3923 16.0267 18.4721L16.0162 18.4742C16.0078 18.491 15.9973 18.5037 15.9973 18.5163C15.97 18.5373 15.9553 18.5646 15.9322 18.5877C15.9175 18.6045 15.9048 18.6276 15.8943 18.6423C15.8586 18.6591 15.7304 18.8735 15.7178 18.9155C15.7052 18.9449 15.6884 18.9638 15.6716 18.9869C15.6548 19.0248 15.6296 19.0563 15.6149 19.0941L15.6107 19.0983C15.6023 19.1004 15.6086 19.1067 15.6002 19.113C15.5602 19.1298 15.5245 19.1971 15.514 19.2307C15.5035 19.2433 15.4846 19.2643 15.4741 19.2769L15.4804 19.2832C15.4636 19.3105 15.4594 19.3316 15.4447 19.3589L15.4384 19.361C15.4342 19.3736 15.4258 19.3778 15.4237 19.3883L15.4132 19.3925L15.4111 19.403L15.4068 19.4051V19.4135C15.3816 19.466 15.3522 19.5165 15.327 19.569L15.3291 19.5753C15.2787 19.6572 15.2408 19.7413 15.1967 19.8296L15.1925 19.838C15.1526 19.9241 15.1106 20.004 15.0727 20.0859C15.0791 20.0943 15.0791 20.0943 15.0812 20.1027C15.0538 20.1552 15.0349 20.1994 15.0097 20.2498C15.0076 20.2582 15.0076 20.2582 15.0055 20.2687L14.9992 20.2729C15.0139 20.3023 14.9614 20.3654 14.9488 20.3927L14.953 20.399C14.9299 20.4116 14.8815 20.6301 14.8794 20.6595C14.8626 20.7499 14.8437 20.8319 14.8227 20.918C14.8206 20.9285 14.8227 20.9348 14.8143 20.939C14.8059 21.0105 14.7849 21.0945 14.7954 21.1597C14.787 21.1681 14.787 21.1681 14.7933 21.1744C14.7933 21.1744 14.7849 21.1765 14.7891 21.1849L14.7828 21.1891L14.7933 21.1912L14.7954 21.1996C14.7933 21.2101 14.7933 21.2101 14.7891 21.2227C14.8017 21.2983 14.8017 21.3719 14.8122 21.4391C14.8143 21.4454 14.8101 21.4496 14.8122 21.4559C14.8122 21.4559 14.8059 21.4622 14.8059 21.4685C14.8017 21.5085 14.8122 21.5652 14.8353 21.6093V21.6219C14.8416 21.6345 14.8479 21.6408 14.8521 21.6576C14.8836 21.748 14.8815 21.8657 14.9341 21.9539C14.9152 21.9644 14.9908 22.1262 15.0538 22.0674L15.0559 22.0569C15.0685 22.0464 15.0706 22.0233 15.0812 21.9854C15.1001 21.914 15.1043 21.8194 15.0917 21.7963C15.1001 21.7942 15.1001 21.7942 15.1022 21.7816L15.0959 21.7858C15.0959 21.7795 15.0896 21.769 15.0917 21.7627C15.1043 21.7564 15.0833 21.6619 15.0833 21.645C15.1022 21.5736 15.1421 21.5211 15.1736 21.458C15.1778 21.4181 15.1988 21.3824 15.2093 21.3383C15.2198 21.3067 15.2345 21.271 15.2472 21.2374C15.3081 21.1575 15.3669 21.0798 15.4237 21.0042L15.4279 21.0021C15.4489 20.9747 15.4741 20.9537 15.4804 20.9117C15.6065 20.7268 15.7262 20.5398 15.846 20.3612C15.8544 20.3465 15.8586 20.336 15.8691 20.3254C15.9322 20.2141 15.9826 20.1027 16.0456 19.9977C16.0519 19.9829 16.0519 19.9829 16.054 19.9724C16.0814 19.9052 16.1129 19.8253 16.1549 19.7476C16.1717 19.7203 16.1927 19.6888 16.2095 19.6593C16.2074 19.6572 16.2074 19.6572 16.1969 19.653L16.2032 19.6467L16.2137 19.6425C16.2621 19.5774 16.2558 19.4849 16.2684 19.4219C16.281 19.34 16.3734 19.0605 16.4239 19.0164C16.4028 18.9785 16.4575 18.9071 16.4617 18.8693C16.4701 18.8651 16.4722 18.8504 16.4764 18.8399C16.4722 18.8336 16.4806 18.8293 16.4869 18.8272C16.51 18.76 16.5394 18.6907 16.5625 18.6192C16.5815 18.5814 16.5983 18.5436 16.6172 18.5079C16.6445 18.4952 16.6802 18.2368 16.7643 18.2662C16.779 18.2746 16.7853 18.2914 16.7895 18.2977L16.7958 18.3103C16.7958 18.344 16.7958 18.3776 16.7979 18.4154L16.8 18.4238C16.7832 18.531 16.779 18.6465 16.7643 18.7537C16.7517 18.8125 16.7306 18.8714 16.7285 18.9323L16.7306 18.9365C16.7264 18.9407 16.7264 18.9407 16.7222 18.9554L16.6991 19.0185C16.6781 19.029 16.6781 19.1298 16.6781 19.1487C16.6802 19.1571 16.6781 19.1677 16.6802 19.1761C16.676 19.2475 16.6571 19.3231 16.6802 19.4051V19.4534C16.6802 19.506 16.6781 19.5711 16.6844 19.6341C16.6781 19.6909 16.676 19.7497 16.6676 19.8106C16.6571 19.8148 16.6571 19.8148 16.6634 19.8211C16.6424 19.8653 16.6235 19.9241 16.6361 19.9703C16.6235 20.0229 16.6172 20.0838 16.6151 20.13L16.6193 20.1342C16.6109 20.1594 16.6151 20.1805 16.6109 20.1952L16.6151 20.2036C16.6088 20.2624 16.6004 20.317 16.5983 20.3759C16.5962 20.4074 16.5899 20.4284 16.5857 20.4557C16.5941 20.4893 16.5941 20.5272 16.6046 20.5608C16.6046 20.5776 16.6046 20.5944 16.6004 20.6133C16.5983 20.6259 16.5962 20.6343 16.5983 20.6532C16.5983 20.6638 16.5941 20.6637 16.5962 20.6743L16.5878 20.7604L16.5941 20.7667C16.5962 20.7751 16.5941 20.7856 16.5878 20.7982C16.5878 20.815 16.5899 20.8319 16.5836 20.855C16.5667 20.8991 16.5625 20.9369 16.5541 20.9768L16.5625 20.9852C16.5478 21 16.5478 21.0168 16.5436 21.0399C16.5436 21.0399 16.5478 21.0378 16.5541 21.0441C16.531 21.0546 16.51 21.3425 16.5163 21.3761C16.5121 21.3908 16.5163 21.3971 16.5142 21.4076C16.5121 21.4727 16.5079 21.5673 16.5394 21.624L16.531 21.6282C16.531 21.6829 16.5478 21.7291 16.5394 21.7921C16.5436 21.8047 16.5415 21.8215 16.5478 21.851C16.5436 21.8783 16.5415 21.9098 16.531 21.9392C16.5226 21.9812 16.5163 22.0212 16.5121 22.0632C16.5142 22.0842 16.5121 22.1136 16.5079 22.1451C16.4974 22.1809 16.4974 22.204 16.4806 22.2292C16.4869 22.2418 16.489 22.2481 16.4911 22.2544L16.489 22.2649C16.4869 22.2922 16.4722 22.3216 16.4659 22.3448L16.4701 22.3511C16.468 22.3616 16.4701 22.37 16.4659 22.3805L16.4596 22.3889L16.468 22.3952C16.4617 22.4057 16.4554 22.433 16.4575 22.4498C16.4722 22.4771 16.4554 22.6873 16.4407 22.7314C16.4386 22.7629 16.4365 22.7902 16.4302 22.8133C16.4323 22.8175 16.4323 22.8175 16.426 22.8259C16.4239 22.8407 16.4176 22.8659 16.4092 22.8806L16.3797 22.9646C16.3776 23.0151 16.365 23.0613 16.3545 23.1075C16.3902 23.1748 16.5478 23.3155 16.6109 23.3155C16.6277 23.345 16.758 23.3303 16.7811 23.326C16.7853 23.3324 16.7916 23.3281 16.7979 23.3366C16.8399 23.3303 16.8777 23.3324 16.9135 23.3303C16.9639 23.3239 17.0332 23.2819 17.0816 23.3008C17.1719 23.2462 17.2581 23.2021 17.3211 23.1264C17.3379 23.0886 17.3652 23.055 17.3904 23.0151L17.3841 23.0172L17.3799 23.0109C17.4072 22.9941 17.4829 22.7902 17.4745 22.7566L17.4829 22.7545C17.4892 22.7314 17.4997 22.7209 17.5081 22.6936L17.506 22.6894C17.5144 22.6536 17.5333 22.6074 17.5501 22.5696L17.548 22.5654C17.5648 22.5423 17.5859 22.5276 17.5943 22.5087L17.5922 22.5045C17.5922 22.5045 17.7098 22.3111 17.7119 22.2838C17.7266 22.2544 17.7498 22.2271 17.7603 22.2019C17.7666 22.1893 17.7729 22.1872 17.7708 22.1809C17.8002 22.101 17.8863 22.0002 17.9031 21.9266C17.9389 21.9077 18.0019 21.6618 18.0397 21.6135L18.0376 21.6072C18.0481 21.5904 18.0649 21.5757 18.0776 21.5568C18.1994 21.4118 18.3087 21.2521 18.4432 21.105C18.4684 21.0756 18.4915 21.0378 18.5335 21.0252C18.544 21.0357 18.5503 21.0483 18.5671 21.0609C18.565 21.0714 18.5629 21.0819 18.5629 21.1008C18.5692 21.1491 18.5735 21.25 18.6428 21.2584C18.7016 21.2647 18.7584 21.1597 18.7542 21.1176C18.7752 21.105 18.7857 21.0546 18.792 21.0231C18.8088 21.0147 18.813 21.0021 18.8235 21C18.8802 20.9285 18.9559 20.8739 19.0231 20.8108C19.0462 20.7793 19.0651 20.7646 19.0862 20.731C19.0883 20.7184 19.0862 20.7121 19.0883 20.7037L19.0946 20.6995C19.0988 20.6701 19.1114 20.6427 19.1177 20.6217C19.1744 20.4473 19.1366 20.2729 18.9244 20.2372C18.8865 20.2372 18.8466 20.2309 18.8088 20.2246C18.8025 20.212 18.7374 20.2141 18.7205 20.2162C18.7184 20.2057 18.544 20.2057 18.5167 20.2141C18.5041 20.2078 18.4936 20.2036 18.4747 20.2057C18.4222 20.2057 18.357 20.2246 18.3276 20.2876L18.3213 20.2771C18.3003 20.3086 18.2772 20.3381 18.252 20.3696C18.2414 20.3843 18.2246 20.3927 18.2141 20.4095L18.2204 20.4158C18.1973 20.4473 18.1763 20.4746 18.149 20.4957L18.1553 20.5041C18.1385 20.5251 18.1217 20.5377 18.1028 20.5587C18.0944 20.5629 18.0902 20.5671 18.0902 20.5671C18.067 20.5776 18.0271 20.607 18.0187 20.6301L18.0124 20.6343C18.0166 20.6385 18.0103 20.6448 18.0061 20.6574L17.9998 20.649C17.9746 20.6638 17.9494 20.7226 17.9473 20.752C17.9389 20.7562 17.9389 20.7562 17.9347 20.7604C17.9158 20.7793 17.8968 20.7982 17.8842 20.8213L17.8674 20.8277L17.8695 20.8382C17.8548 20.8466 17.8527 20.8571 17.8464 20.8739L17.8338 20.8781C17.8338 20.8781 17.8317 20.8844 17.8233 20.8886C17.8107 20.8991 17.8002 20.9117 17.7981 20.9222C17.7561 20.9474 17.7203 21.0273 17.7056 21.063C17.6993 21.0672 17.7014 21.0756 17.7014 21.0756C17.6783 21.0966 17.6489 21.1491 17.6468 21.1765L17.6426 21.1891C17.6384 21.1807 17.6384 21.1807 17.6321 21.1849C17.6279 21.1954 17.6237 21.2101 17.6132 21.2143V21.2227C17.5985 21.2311 17.5165 21.3677 17.5081 21.3908C17.4955 21.3992 17.4892 21.4076 17.4787 21.4202C17.4682 21.4181 17.4535 21.4265 17.4409 21.4328C17.4241 21.4412 17.4093 21.3383 17.4093 21.3383C17.4178 21.2794 17.4178 21.2332 17.422 21.1765C17.422 21.1218 17.4115 21.063 17.4093 21.0063C17.4115 20.9117 17.4199 20.8171 17.4241 20.7226C17.4304 20.6574 17.4304 20.5944 17.4619 20.5293C17.4451 20.502 17.4703 20.275 17.4955 20.2435C17.4871 20.2309 17.5459 19.7035 17.5606 19.6593L17.5543 19.6615L17.5501 19.6572C17.5501 19.6572 17.5859 19.4072 17.5817 19.382C17.5796 19.3736 17.6048 19.2664 17.6048 19.2475C17.6174 19.2433 17.6237 19.1466 17.6153 19.1319C17.6363 19.1214 17.6363 19.0479 17.6363 19.029L17.6321 19.0248C17.6363 19.029 17.6426 19.029 17.6426 19.029V19.0122C17.6426 19.0017 17.6615 18.7495 17.6615 18.7138C17.6552 18.6718 17.6615 18.6276 17.6636 18.5814C17.6678 18.5352 17.672 18.4889 17.6678 18.4427C17.6804 18.3461 17.693 18.2452 17.6783 18.1506L17.693 17.9111C17.6069 17.7577 17.6762 17.1883 17.3799 17.2534ZM13.6292 22.1094C13.6145 22.0989 13.6019 22.0779 13.5872 22.0674C13.5409 21.9981 13.5409 21.9791 13.4653 22.0044C13.4548 22.0359 13.438 22.0947 13.4569 22.1346L13.4632 22.1409C13.4716 22.1746 13.4842 22.2145 13.4926 22.246C13.4926 22.2544 13.4863 22.2544 13.4926 22.2649C13.5136 22.309 13.5325 22.3448 13.5304 22.3931C13.5325 22.3994 13.5325 22.3994 13.5346 22.4057C13.5493 22.4267 13.5619 22.4666 13.5682 22.5003C13.5956 22.5507 13.6145 22.6074 13.6355 22.6557C13.6376 22.6642 13.6397 22.6747 13.6481 22.6894C13.6859 22.7587 13.7237 22.8428 13.7595 22.9142C13.7363 22.9247 13.77 22.9898 13.7847 22.9941C13.7931 23.0172 13.7994 23.0424 13.8099 23.0634C13.7868 23.0739 13.833 23.1601 13.8477 23.1706C13.8456 23.1811 13.8456 23.1811 13.8372 23.1874C13.8456 23.2 13.8498 23.2147 13.8603 23.2294L13.8729 23.2336C13.8729 23.2336 13.8645 23.2378 13.8687 23.2441C13.896 23.3113 13.9276 23.3765 13.9591 23.4458V23.4521C13.9633 23.4878 13.9864 23.5593 14.0221 23.5845C14.0305 23.6244 14.0452 23.6623 14.0662 23.7064C14.0725 23.7148 14.0789 23.7295 14.0852 23.7463C14.0894 23.7526 14.081 23.7547 14.0852 23.761C14.0915 23.7694 14.0957 23.7673 14.0957 23.7673L14.0999 23.7736C14.0894 23.7799 14.1503 23.8871 14.1692 23.9018C14.1671 23.9123 14.1671 23.9123 14.165 23.9249C14.2091 24.0132 14.2427 24.0909 14.2827 24.1729C14.4445 24.4691 14.5916 24.7696 14.7555 25.0659C14.8353 25.2235 14.9677 25.3769 15.0391 25.5534C15.0475 25.5639 15.0559 25.5807 15.0622 25.5933C15.098 25.6437 15.1358 25.7026 15.1673 25.7572C15.1715 25.7677 15.1715 25.7677 15.1652 25.7719C15.1715 25.7677 15.1757 25.7761 15.1841 25.7719C15.1757 25.7761 15.1778 25.7803 15.1841 25.7887C15.1883 25.7845 15.2198 25.8434 15.224 25.8518C15.2493 25.8791 15.2766 25.9127 15.2976 25.9379C15.3627 26.0451 15.4258 26.1291 15.5056 26.2237C15.5413 26.2615 15.5749 26.2993 15.6107 26.3351C15.6128 26.3435 15.6212 26.3414 15.6233 26.3477C15.6569 26.375 15.6863 26.3981 15.7136 26.4275C15.7388 26.4254 15.7704 26.4254 15.7977 26.4296C15.8523 26.417 15.9048 26.4086 15.9637 26.4002C15.9784 26.3918 15.9826 26.3876 15.9994 26.3771C16.0078 26.375 16.0246 26.3729 16.033 26.3708C16.1444 26.3203 16.2495 26.2552 16.2936 26.148L16.302 26.1459L16.3314 26.1018C16.3776 26.0493 16.3797 25.9316 16.3818 25.8644C16.3797 25.8455 16.3818 25.8266 16.3818 25.8097C16.3776 25.7467 16.3776 25.6816 16.3671 25.6248C16.3566 25.5933 16.3482 25.5576 16.3377 25.5282C16.3377 25.484 16.3314 25.4399 16.3272 25.3958C16.3356 25.3937 16.3377 25.379 16.3461 25.3769L16.3419 25.3685C16.3377 25.3622 16.3356 25.3559 16.3272 25.3622C16.3272 25.3412 16.3188 25.3286 16.3146 25.3201L16.3125 25.3117L16.3314 25.3012C16.3146 25.2823 16.3062 25.2676 16.2957 25.2487C16.2705 25.1604 16.241 25.0764 16.2179 24.9966C16.2011 24.9671 16.1822 24.9398 16.1633 24.9104C16.1171 24.8369 16.0582 24.7633 16.0078 24.7024C15.97 24.6646 15.9322 24.6288 15.9027 24.591C15.8481 24.5175 15.8187 24.4313 15.7956 24.3536C15.783 24.3199 15.762 24.2884 15.762 24.2506C15.762 24.2506 15.7494 24.2464 15.7431 24.238C15.7536 24.2359 15.722 24.2149 15.7199 24.2065C15.6905 24.1582 15.6485 24.1392 15.6212 24.0867C15.5855 23.9837 15.575 23.8766 15.5476 23.782C15.535 23.719 15.493 23.677 15.4636 23.616C15.4468 23.5866 15.4342 23.5467 15.4195 23.5194C15.4068 23.4984 15.4047 23.4857 15.39 23.471C15.3732 23.4794 15.3627 23.4773 15.348 23.4857L15.3501 23.4942C15.348 23.5026 15.3459 23.5131 15.3417 23.5236C15.3417 23.5299 15.3417 23.5299 15.348 23.5383C15.348 23.5677 15.3501 23.5971 15.3585 23.6244C15.3501 23.6265 15.3501 23.6265 15.3564 23.637C15.3564 23.677 15.3585 23.7106 15.3606 23.7547C15.3606 23.7547 15.3669 23.761 15.3711 23.7568C15.3753 23.782 15.3711 23.8009 15.3669 23.8219L15.3732 23.8283C15.3816 23.8619 15.3816 23.8997 15.39 23.9249C15.3963 23.9795 15.4026 24.0426 15.4132 24.1035C15.4237 24.1329 15.43 24.1645 15.4384 24.2002C15.4447 24.2254 15.4489 24.2506 15.4573 24.2821C15.4573 24.2821 15.451 24.2947 15.4573 24.301C15.4636 24.3536 15.4636 24.3977 15.4699 24.4502C15.4825 24.5049 15.4972 24.5553 15.5056 24.6036C15.514 24.6036 15.5203 24.6078 15.5203 24.6078C15.5203 24.6477 15.5224 24.6688 15.5308 24.7045C15.5245 24.7423 15.5308 24.778 15.5371 24.82C15.5476 24.8957 15.5539 24.9755 15.5665 25.0533C15.5792 25.1079 15.5939 25.1773 15.6086 25.2319C15.6128 25.2739 15.6107 25.3243 15.6128 25.379C15.5497 25.4105 15.3669 25.1583 15.3522 25.0995C15.3396 25.1079 15.2682 24.9966 15.2535 24.9776C15.1883 24.8558 15.1169 24.7381 15.0391 24.6309C15.0223 24.5931 15.0013 24.5532 14.9803 24.5175C14.9677 24.4859 14.9509 24.4565 14.9278 24.4313C14.8689 24.3347 14.8017 24.2506 14.745 24.1539C14.726 24.1245 14.705 24.0972 14.6882 24.0615C14.6861 24.0426 14.6798 24.03 14.6735 24.0048C14.5853 23.8388 14.5012 23.6749 14.4193 23.5026C14.413 23.4963 14.4087 23.4836 14.4003 23.4668C14.3583 23.3681 14.2911 23.2609 14.2385 23.1474L14.2343 23.1537C14.1902 23.0676 14.1461 22.9877 14.0957 22.9016C14.0326 22.7713 13.9717 22.5822 13.8624 22.5003C13.854 22.4982 13.8477 22.4897 13.8372 22.4834C13.7679 22.4225 13.7237 22.3237 13.6796 22.2376C13.6628 22.2082 13.6208 22.1472 13.6292 22.1094ZM13.5241 21.4391C13.5157 21.4265 13.5724 21.1975 13.5872 21.1744C13.6124 21.1344 13.6544 21.0945 13.6607 21.0357C13.6649 21.0315 13.6649 21.0252 13.6712 21.0231C13.667 21.0126 13.6712 21.0063 13.6712 21.0063C13.6838 20.96 13.6859 20.9117 13.6985 20.8592C13.6922 20.8508 13.7153 20.7772 13.7111 20.7604L13.7174 20.7562C13.7174 20.7562 13.73 20.5377 13.73 20.5209C13.7321 20.4704 13.7321 20.4158 13.7342 20.3696L13.7405 20.3654C13.7363 20.3612 13.7405 20.3507 13.7448 20.3402C13.749 20.2771 13.7616 20.2162 13.77 20.1594C13.7679 20.151 13.7679 20.1405 13.7679 20.1405C13.812 19.9787 13.7931 19.714 13.7511 19.5522C13.7363 19.5039 13.7153 19.4282 13.7006 19.3673C13.6922 19.3147 13.6838 19.2643 13.6922 19.2328C13.6817 19.2034 13.667 19.1719 13.667 19.1466C13.6586 19.0941 13.6439 19.0479 13.6271 19.0017C13.5914 18.9176 13.5598 18.8336 13.5199 18.7642C13.5157 18.7558 13.5157 18.7558 13.5094 18.76C13.5052 18.7327 13.4884 18.7054 13.4842 18.6802C13.4716 18.6865 13.4548 18.6192 13.4527 18.6129C13.4485 18.6087 13.4338 18.5982 13.4275 18.5898L13.4233 18.5814C13.4043 18.5436 13.3959 18.5058 13.3707 18.4637C13.3707 18.4637 13.3686 18.4553 13.3644 18.4511C13.3056 18.407 13.2825 18.3293 13.2173 18.2935C13.2005 18.2578 13.1207 18.178 13.0787 18.1738C13.0787 18.1738 13.0765 18.1696 13.0723 18.1738C13.0324 18.1527 12.9084 18.1443 12.8832 18.1506C12.8706 18.159 12.8559 18.1675 12.8391 18.1738C12.8202 18.1843 12.7992 18.1969 12.7719 18.199C12.7593 18.2074 12.7424 18.2158 12.7298 18.2221C12.7046 18.2431 12.6836 18.2557 12.6563 18.2788L12.6626 18.283C12.6542 18.2893 12.6479 18.2914 12.6479 18.2914C12.6353 18.304 12.629 18.3061 12.6122 18.3124C12.608 18.3229 12.5954 18.3314 12.5807 18.3461C12.547 18.365 12.5449 18.4133 12.5533 18.4427L12.5449 18.449C12.5596 18.5247 12.5764 18.6129 12.6059 18.6844L12.5975 18.6865C12.6206 18.7306 12.6227 18.7726 12.6479 18.8188C12.6395 18.823 12.6437 18.8272 12.6479 18.8336L12.6521 18.842C12.6626 18.8756 12.6773 18.9092 12.6815 18.9491C12.7172 19.0206 12.7088 19.1067 12.7572 19.1761C12.7445 19.1803 12.7866 19.3231 12.7992 19.3484C12.8034 19.3547 12.7929 19.3568 12.7992 19.3631C12.8034 19.3904 12.8139 19.4114 12.816 19.4366C12.8496 19.548 12.8916 19.6657 12.9232 19.777C12.9505 19.8611 12.9568 19.9619 12.9967 20.0523C13.003 20.0859 13.003 20.1195 13.0114 20.151C13.0324 20.1952 13.0261 20.2498 13.0408 20.2939C13.0597 20.4053 13.0892 20.5545 13.1417 20.6638C13.1501 20.6764 13.1522 20.6974 13.1522 20.7184L13.148 20.7226C13.1501 20.731 13.1627 20.7352 13.1627 20.7352C13.1627 20.7541 13.1669 20.7604 13.1669 20.7814C13.1774 20.8003 13.1816 20.8255 13.19 20.8592C13.1942 20.8676 13.2047 20.8823 13.2005 20.8907C13.2047 20.9222 13.2068 20.9621 13.2068 20.9958L13.2131 21.0021L13.2047 21.0042C13.2131 21.0399 13.2215 21.0714 13.2278 21.1071C13.2299 21.1134 13.2257 21.1155 13.2278 21.126C13.2362 21.1554 13.2552 21.1912 13.2678 21.2332C13.2615 21.2374 13.2636 21.2416 13.2573 21.2458C13.2615 21.2521 13.2636 21.2605 13.2678 21.2689C13.2804 21.3425 13.293 21.4202 13.3014 21.4895C13.3077 21.5358 13.3119 21.5778 13.3182 21.6114C13.3245 21.6156 13.3266 21.624 13.3266 21.624C13.335 21.6387 13.3476 21.7333 13.3518 21.7606C13.3518 21.7648 13.3602 21.7711 13.3602 21.7711C13.3644 21.7816 13.356 21.7816 13.3602 21.7921L13.3644 21.8005C13.3749 21.8194 13.4128 21.8909 13.4485 21.872C13.5073 21.8426 13.4989 21.5274 13.5241 21.4391Z" fill="#005D7F"/>
<path fill-rule="evenodd" clip-rule="evenodd" d="M30.0335 12.154V12.1435C30.025 12.1435 30.025 12.1372 30.025 12.1309C30.0082 12.1204 29.9998 12.1141 29.983 12.1078C29.9347 12.0994 29.8927 12.0826 29.8506 12.0763C29.8275 12.07 29.7939 12.07 29.7708 12.0616L29.7603 12.0742C29.7477 12.0868 29.7393 12.1057 29.733 12.1183L29.7225 12.1204C29.7225 12.1267 29.7162 12.1267 29.7162 12.1372H29.7078V12.154C29.7078 12.154 29.63 12.2801 29.6237 12.2864C29.6216 12.2927 29.6132 12.3032 29.6111 12.3137C29.6132 12.32 29.6132 12.32 29.6048 12.3179C29.5838 12.3621 29.567 12.4419 29.5691 12.4902C29.5649 12.4881 29.5649 12.4881 29.5628 12.5007C29.5565 12.5365 29.5481 12.5722 29.5418 12.6163C29.5418 12.6226 29.5313 12.6226 29.5334 12.6289C29.5018 12.7109 29.5039 12.8012 29.4808 12.8916L29.4829 12.9336C29.4766 12.9441 29.4766 12.9483 29.4766 12.9483C29.4514 12.9966 29.422 13.0744 29.4304 13.129C29.422 13.129 29.422 13.129 29.422 13.1353C29.4157 13.1479 29.4136 13.1626 29.4073 13.1773C29.401 13.1879 29.401 13.2026 29.3926 13.2194C29.3926 13.2278 29.3863 13.2446 29.3863 13.2509C29.3863 13.2698 29.3779 13.2761 29.3779 13.295L29.3716 13.2908C29.3716 13.3265 29.3779 13.4799 29.3842 13.5072C29.3842 13.5199 29.3926 13.5388 29.3947 13.5451C29.3926 13.5535 29.3926 13.5535 29.3926 13.564C29.3926 13.5871 29.4052 13.6606 29.422 13.6774C29.4283 13.688 29.4367 13.7174 29.4472 13.73H29.4556C29.4556 13.7636 29.5039 13.8035 29.5313 13.8077C29.5376 13.8203 29.5481 13.8245 29.5565 13.835V13.8413C29.5712 13.8413 29.5796 13.8498 29.5943 13.8498C29.6468 13.8897 29.7015 13.9317 29.754 13.9674C29.7792 13.9905 29.8044 14.0052 29.8191 14.0221C29.8443 14.0221 29.8548 14.0326 29.8696 14.0389C29.9032 14.0452 29.9368 14.0431 29.9683 14.0536C29.983 14.0599 29.9935 14.0578 30.0103 14.0578C30.0251 14.0473 30.0419 14.0326 30.0482 14.0242C30.0482 14.0242 30.0545 13.9821 30.0734 13.9863C30.0797 13.9758 30.0902 13.9758 30.0965 13.9758C30.3066 13.8813 30.2247 13.564 30.252 13.3602L30.2604 13.3518H30.252V13.2866C30.2499 13.2803 30.2541 13.2761 30.2541 13.2761C30.2541 13.2698 30.2478 13.2614 30.2478 13.2614L30.2499 13.253H30.2646C30.2625 13.1731 30.2604 13.1059 30.2835 13.0345V13.0261C30.2646 12.9672 30.2898 12.9105 30.2709 12.8622C30.2667 12.8117 30.2457 12.7739 30.2352 12.7256L30.231 12.6352C30.2121 12.5491 30.1721 12.4608 30.1448 12.3705C30.1322 12.3368 30.1301 12.2969 30.1091 12.2633C30.0944 12.2675 30.0818 12.1982 30.0503 12.1708C30.0503 12.1582 30.0419 12.1498 30.0335 12.154ZM34.3074 8.32133C34.2339 8.26039 34.2612 8.20366 34.1225 8.22888H34.1078C34.1015 8.23938 34.0847 8.23938 34.0742 8.23938L34.0763 8.24569C34.0658 8.24779 34.0658 8.24779 34.0616 8.24779C34.0322 8.24569 34.009 8.25619 33.9964 8.2646C33.988 8.2625 33.9775 8.2646 33.9775 8.2646H33.9733C33.9712 8.2751 33.9712 8.2751 33.9628 8.2688C33.946 8.2751 33.9376 8.28351 33.9229 8.28351C33.9124 8.27721 33.8998 8.2751 33.8893 8.2646L33.8788 8.2667L33.8809 8.2751C33.8788 8.25199 33.7275 8.25829 33.6938 8.2625V8.25829C33.6749 8.2646 33.6623 8.2751 33.6371 8.28351C33.6287 8.28351 33.6224 8.28981 33.6119 8.30032C33.572 8.30032 33.3577 8.4432 33.324 8.47682C33.3156 8.47893 33.3156 8.47893 33.3156 8.48523C33.2988 8.49363 33.2841 8.50414 33.261 8.51465H33.2526V8.52095C33.2295 8.52936 33.2022 8.54617 33.1874 8.55247C33.0992 8.605 33.0172 8.64913 32.9395 8.69746C32.9311 8.70586 32.9143 8.70796 32.8975 8.71637C32.8975 8.71637 32.8975 8.72477 32.8933 8.72477C32.8828 8.73528 32.8786 8.74158 32.8702 8.74999L32.8596 8.75209L32.8512 8.7605C32.8428 8.7605 32.8365 8.7689 32.8281 8.7689C32.8008 8.79201 32.7735 8.81093 32.7483 8.83404C32.7336 8.84244 32.7063 8.86136 32.6937 8.86976V8.87817C32.6348 8.91179 32.5802 8.95171 32.5234 8.98743V8.97903C32.4877 9.01265 32.4499 9.03996 32.4121 9.06308V9.07148C32.4121 9.07148 32.4121 9.06308 32.4016 9.06308C32.3827 9.08829 32.3553 9.11351 32.3406 9.13662L32.3322 9.13872L32.3301 9.13032H32.3259V9.13872L32.3175 9.14082V9.14713C32.2839 9.14713 32.1431 9.29842 32.1011 9.32363L32.1032 9.33204C32.0738 9.34885 32.0612 9.36566 32.036 9.38457V9.39087C32.036 9.38457 32.0297 9.38247 32.0191 9.38667C31.9414 9.46021 31.8721 9.54216 31.7964 9.61361C31.7355 9.61991 31.788 9.49384 31.8027 9.47913C31.8006 9.40348 31.8931 9.23958 31.9246 9.17444C31.9498 9.11561 31.9813 9.05887 32.0044 8.99163C32.0255 8.95801 32.0591 8.94541 32.099 8.91179L32.1053 8.91599V8.90128C32.1557 8.90128 32.2881 8.7731 32.3301 8.73738C32.3932 8.69115 32.4583 8.63862 32.5298 8.58819C32.5781 8.54617 32.6327 8.51255 32.681 8.47682C32.681 8.47682 32.8912 8.26039 32.9038 8.25409H32.8954C32.8954 8.24569 32.9038 8.23728 32.9038 8.23728L32.9122 8.23938C32.9437 8.20366 32.9668 8.16374 32.9941 8.11751C32.9941 8.11751 33.0698 8.01455 33.0761 7.97883L33.0845 7.98093C33.0992 7.9368 33.1076 7.90738 33.1139 7.86326C33.1286 7.80862 33.1286 7.73508 33.1223 7.66994C33.1139 7.5964 33.0551 7.55017 33.0404 7.47242C33.032 7.2665 33.0362 7.11941 32.8786 6.97442C32.8618 6.95971 32.8533 6.9366 32.8365 6.91559C32.8092 6.86726 32.7798 6.83154 32.7462 6.78741C32.7336 6.79161 32.7294 6.78321 32.7189 6.78321C32.6936 6.78531 32.597 6.68235 32.5844 6.65293C32.5844 6.65083 32.5844 6.64032 32.576 6.62982C32.576 6.58779 32.5907 6.47852 32.5466 6.45541C32.5382 6.4344 32.5298 6.40708 32.5213 6.39027C32.5213 6.36085 32.4961 6.32723 32.4688 6.29992C32.4625 6.29361 32.452 6.2768 32.452 6.2684C32.4121 6.21587 32.3511 6.16544 32.3112 6.1108C32.286 6.07718 32.2671 6.03936 32.244 6.00784C32.2356 5.99944 32.2251 5.98893 32.2188 5.98263C32.202 5.98263 32.1158 5.89437 32.1011 5.88177C32.1011 5.88177 32.0675 5.83764 32.0465 5.83764L32.0086 5.84184C31.9351 5.84184 31.8552 5.83764 31.7859 5.83764C31.767 5.83764 31.7502 5.83764 31.725 5.85025C31.7208 5.85025 31.7082 5.85025 31.704 5.86075C31.6892 5.85865 31.6787 5.86916 31.6682 5.86916V5.87546C31.6619 5.87756 31.6619 5.87756 31.6556 5.87756L31.6535 5.86916C31.6472 5.88597 31.6283 5.89437 31.6157 5.90698C31.5506 5.98263 31.4728 6.14232 31.5401 6.24318C31.5401 6.2684 31.5422 6.30202 31.5527 6.32723L31.559 6.32933C31.559 6.34194 31.5653 6.34825 31.5695 6.36085C31.6493 6.6004 31.6703 6.85675 31.6367 7.11521C31.6304 7.13832 31.6283 7.16143 31.6199 7.18665C31.6073 7.34004 31.5821 7.48713 31.5653 7.65103C31.5569 7.70146 31.5569 7.74769 31.5485 7.79812C31.5401 7.81703 31.5317 7.82123 31.5317 7.84014C31.519 7.88217 31.5275 7.9326 31.5148 7.97042L31.5043 7.98093C31.5148 8.02926 31.4917 8.06498 31.4917 8.1028V8.1091C31.4833 8.1091 31.4833 8.1028 31.4833 8.1028L31.4791 8.1007V8.11751C31.4791 8.14272 31.4665 8.15953 31.4623 8.18265C31.4434 8.23308 31.4224 8.2751 31.4077 8.31713V8.33394C31.4014 8.35075 31.393 8.36546 31.3867 8.38017C31.3762 8.38017 31.3678 8.39067 31.3678 8.39908H31.3594C31.353 8.40748 31.353 8.41379 31.3467 8.41379L31.3362 8.41169C31.3236 8.439 31.3131 8.45581 31.2984 8.47262C31.3005 8.51465 31.0967 8.66594 31.0589 8.68275V8.69325L31.0463 8.69115C31.0421 8.69956 31.0274 8.70586 31.0189 8.72477C30.9958 8.75209 30.9685 8.7752 30.9496 8.80042V8.80882C30.9412 8.81513 30.9328 8.81513 30.916 8.82563V8.83614C30.8908 8.83614 30.8571 8.84244 30.8298 8.85295C30.8256 8.86136 30.8172 8.86136 30.8172 8.86136C30.7794 8.87817 30.7479 8.91179 30.7248 8.94541V8.95171C30.7164 8.95171 30.7164 8.94541 30.708 8.94751C30.708 8.94751 30.7164 8.95171 30.7164 8.95801H30.7059C30.708 8.97903 30.7017 8.98323 30.7038 8.99374C30.6912 9.00214 30.6869 9.01054 30.6764 9.02736C30.6407 9.14082 30.7374 9.18705 30.8298 9.22277H30.8361C30.9055 9.32153 31.0421 9.34465 31.1429 9.37617C31.1492 9.37406 31.166 9.38037 31.1723 9.38037C31.2291 9.38037 31.3236 9.46652 31.2921 9.53166C31.2795 9.61991 31.2627 9.72077 31.2522 9.80902H31.2438C31.2438 9.88257 31.2291 9.95611 31.2165 10.0128C31.2165 10.0297 31.206 10.0402 31.206 10.0528C31.1997 10.0612 31.1997 10.0612 31.1912 10.0696C31.1513 10.1368 31.1219 10.1936 31.0589 10.2566C31.061 10.2629 31.0505 10.2629 31.0505 10.2629C31.0189 10.286 30.9958 10.3133 30.9643 10.3406H30.9538L30.9559 10.3469C30.9496 10.3554 30.9328 10.3617 30.9244 10.3722C30.8908 10.4079 30.8529 10.4373 30.8214 10.4709C30.813 10.4709 30.813 10.4709 30.813 10.4793L30.8025 10.4814C30.7941 10.4961 30.7815 10.5045 30.7626 10.5256L30.7542 10.5235C30.7332 10.5571 30.708 10.5802 30.6764 10.6054V10.6159C30.6533 10.639 30.6386 10.6537 30.6113 10.681L30.6155 10.6895C30.5756 10.7273 30.5336 10.7798 30.4873 10.8218V10.8386C30.4453 10.8786 30.4096 10.9311 30.3697 10.9731C30.3465 11.0067 30.3108 11.0425 30.2835 11.0698V11.0803C30.2835 11.0803 30.1238 11.2442 30.0293 11.345C29.9956 11.3808 29.9746 11.4123 29.962 11.4228C29.9347 11.4627 29.8864 11.5216 29.8864 11.5699C29.8801 11.5867 29.8801 11.5951 29.8717 11.6098C29.8633 11.6224 29.8569 11.635 29.8485 11.6434C29.8254 11.6434 29.8275 11.7737 29.8443 11.801C29.8443 11.801 29.8443 11.8073 29.8359 11.8094C29.8633 11.8367 29.8843 11.8472 29.9032 11.862C29.9179 11.8725 29.9326 11.8809 29.9452 11.8872C29.9683 11.8956 29.9935 11.8914 30.0187 11.8998H30.0419C30.1175 11.9145 30.2058 11.9145 30.2625 11.8809C30.2961 11.8683 30.3255 11.8578 30.357 11.8515C30.4222 11.8494 30.4705 11.8178 30.5104 11.7737L30.5209 11.7716C30.6302 11.6728 30.7416 11.5762 30.855 11.4837C30.855 11.4753 30.855 11.4753 30.8466 11.4627H30.855C30.9034 11.4291 30.9496 11.3976 31.0063 11.3619C31.0063 11.3619 31.0147 11.364 31.0105 11.3682L31.0379 11.3429L31.0295 11.345C31.0295 11.3366 31.1492 11.3261 31.1828 11.3156C31.1997 11.3156 31.2165 11.3324 31.2333 11.3324L31.2396 11.3345C31.2648 11.3471 31.3131 11.3366 31.3362 11.3219C31.3867 11.3198 31.435 11.2694 31.4665 11.2337C31.477 11.2358 31.5296 11.1517 31.538 11.1391C31.538 11.1286 31.5779 11.1055 31.5842 11.0866V11.0782L31.5926 11.0887C31.5926 11.0194 31.7964 10.8449 31.83 10.7735C31.8363 10.7735 31.8363 10.7735 31.8342 10.7777C31.8994 10.6958 31.9624 10.6201 32.0275 10.5466V10.5361C32.0339 10.5361 32.0339 10.5361 32.036 10.5445C32.0339 10.5298 32.3911 10.0822 32.4289 10.0738C32.4331 10.1221 32.3217 10.2629 32.2902 10.3112V10.3175C32.2713 10.3469 32.2566 10.3617 32.2524 10.3848C32.2251 10.41 32.2104 10.4457 32.1956 10.4667C32.1788 10.4919 32.162 10.5214 32.1473 10.5403C32.1326 10.5697 32.12 10.5928 32.0948 10.618C32.1032 10.618 32.1032 10.618 32.1011 10.6264C32.0885 10.6495 32.0717 10.6768 32.0528 10.7C32.0297 10.7231 32.0149 10.7483 32.0023 10.784C31.9918 10.784 31.9834 10.7924 31.9834 10.7966L31.9876 10.8071H31.9792C31.9519 10.8386 31.9141 10.8912 31.8973 10.9416C31.891 10.95 31.8721 10.9668 31.8658 10.9731H31.8616C31.8616 10.9731 31.851 10.9731 31.8531 10.9815H31.8616C31.8531 10.9983 31.8363 11.0151 31.83 11.0341C31.83 11.0341 31.8174 11.0341 31.8174 11.0236C31.8111 11.0341 31.8111 11.0425 31.8027 11.0488V11.0593C31.7901 11.0887 31.7649 11.1223 31.7418 11.1475V11.1559L31.7334 11.1643V11.1748C31.7082 11.1896 31.6829 11.2169 31.6703 11.2358V11.2484C31.6598 11.2568 31.6535 11.2568 31.6535 11.2652C31.6073 11.324 31.559 11.3808 31.5211 11.448L31.5274 11.6413C31.5232 11.6539 31.519 11.6518 31.5169 11.6602C31.519 11.6686 31.5169 11.6749 31.5274 11.6897C31.5401 11.7632 31.5317 11.8557 31.5905 11.9103C31.6157 11.9166 31.6388 11.9187 31.6619 11.9166C31.6977 11.9145 31.7355 11.904 31.767 11.8956C31.767 11.8809 31.8426 11.8683 31.8594 11.862C31.8594 11.8788 31.8826 11.9271 31.8616 11.9397C31.8174 12.0069 31.7817 12.0826 31.7418 12.1582C31.7208 12.1919 31.7019 12.2234 31.6808 12.2591V12.2801C31.6808 12.3137 31.6304 12.3389 31.643 12.3726V12.3789C31.6325 12.3957 31.6325 12.4062 31.6262 12.4125L31.6283 12.423C31.6199 12.4314 31.6094 12.4398 31.6052 12.4524C31.5947 12.4608 31.5947 12.4776 31.5863 12.486C31.5653 12.486 31.5401 12.5596 31.5338 12.5785C31.5106 12.6352 31.4959 12.6857 31.4728 12.7382C31.4644 12.7655 31.4602 12.7886 31.4413 12.8159C31.4329 12.8411 31.4287 12.8559 31.4203 12.8832C31.4203 12.8895 31.414 12.8979 31.414 12.8979C31.3909 12.9966 31.3846 13.1101 31.4203 13.2089C31.4287 13.2236 31.435 13.2488 31.4539 13.2614C31.5169 13.3665 31.5211 13.3854 31.6535 13.3475C31.6598 13.3475 31.6598 13.3412 31.6682 13.337C31.6766 13.3307 31.6829 13.3328 31.6829 13.3328C31.7418 13.3013 31.7565 13.2488 31.8027 13.2215C31.8237 13.2068 31.8616 13.2152 31.8763 13.2194C31.8763 13.2194 31.9036 13.2782 31.9099 13.2845L31.9141 13.2908L31.9036 13.295C31.8973 13.3602 31.8973 13.4232 31.8889 13.482L31.8994 13.4799V13.4904C31.8994 13.4967 31.8973 13.5114 31.891 13.5199C31.891 13.627 31.9162 13.772 31.8679 13.8624C31.8679 13.8624 31.8679 13.8708 31.8763 13.8708C31.8784 13.8792 31.8784 13.8792 31.8763 13.8876C31.8679 13.938 31.8637 13.9863 31.8594 14.0347C31.8594 14.1376 31.8069 14.2637 31.9141 14.3351C31.9456 14.3477 31.9876 14.3751 32.0191 14.3898L32.0696 14.3877C32.1032 14.3877 32.1431 14.3456 32.1746 14.3183C32.1746 14.3246 32.1809 14.3288 32.1809 14.3288C32.1893 14.3183 32.1978 14.3015 32.1956 14.2952L32.2482 14.2448C32.2587 14.2448 32.2713 14.2385 32.2839 14.2343L32.2923 14.2385L32.2902 14.228C32.2986 14.2112 32.3175 14.2049 32.3259 14.1839C32.3217 14.1775 32.3638 14.1103 32.3638 14.0872C32.3764 14.0536 32.3932 14.0221 32.4079 13.9821C32.4142 13.8981 32.4058 13.8203 32.4121 13.7363C32.4184 13.6859 32.4226 13.6375 32.4331 13.5892C32.4352 13.5072 32.4352 13.4253 32.4394 13.3454C32.4478 13.2614 32.4709 13.1395 32.452 13.0534L32.4478 13.0008C32.4625 12.8538 32.4898 12.7088 32.5445 12.5911C32.5487 12.5827 32.5487 12.5827 32.5487 12.5785L32.5592 12.5701C32.5592 12.5596 32.5676 12.5449 32.5676 12.5365C32.576 12.5281 32.576 12.5176 32.5823 12.5133C32.6117 12.4377 32.66 12.3789 32.7084 12.3032C32.7147 12.3137 32.7252 12.3137 32.7252 12.3137C32.7252 12.3137 32.8008 12.1877 32.8134 12.1792C32.8071 12.0889 32.929 12.0217 32.9038 11.9166C32.9248 11.9166 32.9206 11.759 32.929 11.7359C32.9122 11.7359 32.7945 11.5846 32.763 11.5699C32.7546 11.5615 32.7462 11.5468 32.7357 11.5363C32.7294 11.5363 32.7273 11.5279 32.7273 11.5216C32.7084 11.4837 32.7 11.4081 32.639 11.4039L32.6432 11.3913V11.3787C32.6159 11.3198 32.721 11.261 32.6958 11.2043C32.6789 11.1896 32.6726 11.1748 32.6537 11.1643H32.6453C32.6306 11.1643 32.6117 11.1643 32.5991 11.1601C32.5802 11.1496 32.5613 11.1454 32.5382 11.1349H32.5234C32.5213 11.1202 32.4877 11.1139 32.4835 11.1118L32.473 11.1076L32.4709 11.0971C32.4667 11.1076 32.4541 11.1076 32.4541 11.1076C32.4394 11.1055 32.4226 11.1097 32.4163 11.0971C32.3995 11.1097 32.3827 11.1097 32.3743 11.1139C32.3659 11.116 32.3596 11.116 32.3596 11.1097H32.3511C32.3511 11.1265 32.2377 11.1517 32.2251 11.1139C32.2272 11.0866 32.2587 11.0383 32.2839 11.0299C32.2923 11.013 32.2902 11.0046 32.2881 10.9857H32.307C32.349 10.9353 32.3764 10.8891 32.4184 10.8365L32.4163 10.8281L32.4226 10.8365C32.4352 10.8218 32.4478 10.8113 32.4583 10.7945C32.4583 10.7882 32.4583 10.7882 32.4667 10.7798C32.4625 10.7903 32.473 10.7882 32.473 10.7882C32.4835 10.7777 32.4835 10.7777 32.4877 10.7714L32.4835 10.7735C32.4835 10.763 32.4877 10.7609 32.4877 10.7546C32.494 10.7546 32.4961 10.7609 32.4961 10.7609C32.5129 10.7462 32.5213 10.7399 32.5361 10.7189H32.5298L32.5256 10.7126C32.5361 10.7126 32.5361 10.7063 32.5445 10.7063C32.5445 10.7063 32.5487 10.6958 32.5592 10.7C32.5592 10.7 32.5487 10.6958 32.5487 10.6916C32.5928 10.6853 32.9122 10.3364 32.9563 10.2755C32.9794 10.244 32.9857 10.202 33.0257 10.1788V10.162H33.0446C33.0446 10.162 33.0425 10.1557 33.0488 10.1473L33.053 10.1368L33.0572 10.1347C33.1139 10.1116 33.3745 9.81953 33.3724 9.7691C33.3829 9.75439 33.3913 9.73968 33.3955 9.72287C33.3955 9.67454 33.4039 9.5968 33.3366 9.57578C33.3366 9.57578 33.219 9.45181 33.2106 9.45181C33.2022 9.45181 33.1959 9.4392 33.1959 9.4392C33.1496 9.42659 32.9668 9.44761 33.0025 9.35095C33.013 9.33204 33.0235 9.30892 33.0362 9.30892V9.30262C33.053 9.2753 33.0677 9.24799 33.0845 9.21857C33.0845 9.21857 33.1328 9.17444 33.1307 9.16604C33.1391 9.15763 33.1391 9.15763 33.1496 9.14923L33.1538 9.14713C33.1811 9.12611 33.2022 9.1072 33.219 9.09039C33.2883 9.03996 33.3619 8.98113 33.4354 8.9307C33.5131 8.87186 33.5993 8.81723 33.6812 8.771C33.7044 8.75629 33.7296 8.73738 33.7548 8.72688V8.72057C33.7548 8.72057 33.7548 8.72688 33.7632 8.72688C33.7611 8.69536 33.8893 8.61761 33.9229 8.62601C33.9544 8.61551 33.988 8.6092 34.0195 8.5987C34.1645 8.57979 34.1078 8.85085 34.1099 8.94751C34.1099 8.98533 34.1036 9.03576 34.0952 9.07568C34.0973 9.08619 34.091 9.09039 34.091 9.1093C34.0742 9.19335 34.0469 9.29001 34.049 9.38037C34.049 9.38877 34.0427 9.39508 34.0406 9.40138C34.0132 9.57789 33.9838 9.74599 33.9544 9.92039C33.9481 9.95821 33.9439 10.0044 33.9355 10.0486L33.9271 10.0591C33.9208 10.1158 33.9124 10.1725 33.9061 10.2314C33.8893 10.4835 33.8809 10.7588 33.8514 11.013C33.8283 11.2064 33.8073 11.3976 33.78 11.5951C33.7821 11.6077 33.7716 11.6245 33.7632 11.6476C33.7548 11.7149 33.7464 11.7779 33.7296 11.8472V11.8557C33.7212 11.904 33.7191 11.9502 33.7086 12.0006C33.7023 12.0175 33.6938 12.0322 33.6938 12.0406C33.6854 12.0406 33.6854 12.049 33.6854 12.049C33.6854 12.0595 33.6791 12.0595 33.6791 12.0658C33.6791 12.0763 33.6686 12.0889 33.6623 12.1078C33.6623 12.1078 33.6623 12.1162 33.6644 12.1225C33.6245 12.1856 33.5909 12.2444 33.5636 12.3032C33.5468 12.3137 33.53 12.3242 33.5215 12.3389C33.5047 12.3473 33.4816 12.3684 33.4669 12.381C33.4417 12.3873 33.427 12.4062 33.4039 12.4125C33.3135 12.4608 33.2253 12.5028 33.1454 12.5491L33.1307 12.5449C33.1307 12.5869 33.0908 12.6184 33.1097 12.6667C33.1139 12.7025 33.1664 12.7235 33.1895 12.7382C33.4459 12.8874 33.5552 12.7151 33.7212 12.5722C33.7716 12.5386 33.8577 12.486 33.8725 12.4188C33.8914 12.4188 33.904 12.3705 33.9124 12.3558C33.967 12.2066 34.028 12.0595 34.07 11.8914C34.0868 11.8199 34.1036 11.7485 34.1141 11.6665C34.1225 11.6077 34.1372 11.551 34.1435 11.4837C34.1477 11.3724 34.1624 11.2568 34.1645 11.1454C34.1645 11.1013 34.1813 11.032 34.1666 10.9794C34.1645 10.8071 34.1855 10.6243 34.1813 10.4499H34.1876C34.1876 10.3533 34.1897 10.2629 34.1982 10.1641H34.1876C34.1897 10.1599 34.1961 10.1368 34.1961 10.1326C34.2045 10.0927 34.2129 10.0507 34.2192 10.0086C34.2297 9.98553 34.236 9.95191 34.2423 9.92669C34.257 9.86156 34.2612 9.80482 34.278 9.73968C34.3305 9.47703 34.3789 9.21647 34.4251 8.95381C34.4419 8.87817 34.4272 8.72477 34.4692 8.65963C34.4755 8.5945 34.4797 8.52936 34.4881 8.45791C34.4818 8.2751 34.381 8.38647 34.3074 8.32133Z" fill="#005D7F"/>
<path fill-rule="evenodd" clip-rule="evenodd" d="M54.9386 8.39883C54.9386 8.39883 54.9407 8.39253 54.9491 8.39253H54.9554C54.9554 8.38412 54.9638 8.38623 54.9638 8.38623C55.05 8.3421 55.1256 8.31058 55.2034 8.27696V8.26856C55.2223 8.26225 55.2307 8.25595 55.2475 8.25805C55.3483 8.21602 55.445 8.14248 55.5291 8.08575C55.5963 8.09205 55.7329 7.94916 55.7938 7.92395C55.7959 7.89243 55.8716 7.842 55.8842 7.80418L55.8884 7.79577C55.8947 7.79577 55.9472 7.66549 55.9493 7.64238L55.9556 7.64448C55.9493 7.62137 55.9535 7.58775 55.9556 7.55623C55.9493 7.54782 55.9451 7.52891 55.9367 7.52051C55.943 7.52051 55.9157 7.47638 55.9073 7.47008C55.9073 7.45116 55.8716 7.43015 55.8568 7.42175C55.8484 7.41965 55.8379 7.41965 55.8232 7.41124C55.7434 7.40073 55.6803 7.36711 55.6005 7.35871L55.59 7.36711L55.5858 7.36501C55.5711 7.37972 55.5564 7.39443 55.5417 7.40073L55.5396 7.40914C55.5185 7.44696 55.4975 7.47848 55.4765 7.5184C55.4597 7.55833 55.4282 7.60246 55.4114 7.65289V7.65709C55.4114 7.65709 55.4009 7.65709 55.4009 7.66549C55.3925 7.6718 55.3925 7.6718 55.3799 7.6697C55.3567 7.68651 55.3294 7.70121 55.3063 7.71382V7.72223C55.2643 7.73484 55.2202 7.75165 55.1781 7.77476C55.1256 7.79787 55.071 7.82309 55.0163 7.842C54.9743 7.86091 54.9302 7.88402 54.8777 7.90504C54.8777 7.90504 54.8714 7.91134 54.8629 7.91134C54.8524 7.91764 54.8335 7.92395 54.8251 7.93025C54.7873 7.94286 54.7516 7.95547 54.7096 7.96808C54.6843 7.97438 54.6591 7.99119 54.6318 7.99749C54.6255 8.0038 54.6255 8.0038 54.615 8.008C54.5394 8.03532 54.4616 8.06053 54.3797 8.08575H54.3881C54.3692 8.08575 54.3629 8.09205 54.3544 8.09205H54.3376L54.2893 8.10676H54.2809C54.2536 8.12147 54.2368 8.12987 54.2095 8.14458L54.2032 8.14248C54.2032 8.11726 54.2263 8.09415 54.241 8.07944C54.241 8.07944 54.2893 8.0038 54.2998 7.99749C54.3082 7.91344 54.3713 7.82309 54.4049 7.74324C54.4448 7.65289 54.4721 7.54782 54.512 7.44066C54.5793 7.27046 54.6612 7.08134 54.6318 6.86701H54.6402C54.6318 6.85861 54.6318 6.85861 54.6255 6.85861L54.6318 6.77036C54.6255 6.75355 54.6276 6.73463 54.6276 6.71782C54.6171 6.59595 54.5709 6.47828 54.5352 6.36061C54.5394 6.28497 54.4112 6.05172 54.3439 6.0181C54.3439 6.016 54.3355 6.0055 54.3355 6.0055C54.3292 6.0034 54.2473 5.82689 54.2158 5.80378C54.22 5.73023 54.0498 5.57684 54.0035 5.52641C53.9972 5.52851 53.9972 5.52851 53.9888 5.52431C53.9657 5.5117 53.9447 5.49489 53.9195 5.47598C53.9111 5.47388 53.9111 5.46757 53.9069 5.46757L53.7997 5.45707C53.7829 5.45707 53.764 5.45497 53.7493 5.44656L53.7514 5.45497L53.7451 5.45286L53.7325 5.44026C53.6337 5.46547 53.6085 5.48018 53.5938 5.58524C53.5959 5.60205 53.6064 5.62727 53.6106 5.64408C53.619 5.71972 53.6274 5.79327 53.64 5.86471C53.6589 5.91514 53.6757 5.96767 53.6904 6.0181C53.7031 6.06223 53.7136 6.10215 53.7178 6.14628C53.7178 6.15469 53.7262 6.15469 53.7262 6.16099C53.7367 6.23664 53.7514 6.31228 53.7703 6.37742C53.7976 6.53501 53.8228 6.70101 53.8249 6.86491C53.7976 6.96157 53.7808 7.05613 53.7619 7.16119C53.7514 7.16959 53.7514 7.178 53.7514 7.18641C53.743 7.22633 53.7283 7.25785 53.7178 7.28937C53.701 7.3356 53.6841 7.39233 53.661 7.43646C53.6631 7.44486 53.6547 7.44486 53.6526 7.45537C53.6295 7.51841 53.6253 7.59615 53.5875 7.64238C53.5749 7.69911 53.5539 7.75795 53.5371 7.81048C53.5181 7.8483 53.5013 7.88192 53.4887 7.91764C53.4782 7.93445 53.4782 7.94496 53.4761 7.95967C53.4572 7.99959 53.4362 8.03532 53.4173 8.06894C53.4152 8.07524 53.4089 8.08575 53.4089 8.08575C53.3879 8.12567 53.3647 8.18661 53.3206 8.21392L53.3185 8.22443C53.3185 8.23914 53.308 8.24754 53.308 8.26435C53.2933 8.26435 53.2513 8.34 53.2492 8.35681C53.2429 8.37992 53.1735 8.38833 53.1567 8.38833H53.1504C53.142 8.39463 53.142 8.39463 53.1315 8.40514C53.1168 8.40934 53.1 8.41564 53.0832 8.42405C53.0328 8.43666 52.9802 8.45137 52.9298 8.46397C52.9151 8.46397 52.9067 8.47238 52.8962 8.47238V8.47868C52.8857 8.47658 52.8857 8.47658 52.8857 8.47238C52.8815 8.47448 52.8626 8.47448 52.8583 8.48288H52.8457C52.8289 8.48709 52.8121 8.48499 52.7974 8.49759C52.7974 8.49759 52.789 8.49339 52.7827 8.49339C52.7701 8.5018 52.7617 8.5018 52.7491 8.49759H52.7323C52.7134 8.5039 52.6902 8.5018 52.6734 8.5081C52.665 8.5081 52.6671 8.49969 52.6566 8.49759V8.5039L52.6503 8.5081C52.6335 8.5039 52.6251 8.5102 52.6083 8.5081V8.5165C52.6083 8.50179 52.5516 8.52071 52.5432 8.51861L52.5369 8.53121L52.4927 8.52071C52.436 8.5165 52.3772 8.53542 52.3267 8.54592V8.55433H52.3141C52.2994 8.55433 52.2763 8.56063 52.2595 8.56904C52.2322 8.57534 52.2091 8.57744 52.1859 8.59425L52.1439 8.58795C52.1439 8.58795 52.1019 8.61106 52.0893 8.64048C52.0872 8.65519 52.0788 8.6699 52.0767 8.68881C52.0704 8.75605 52.1944 8.86531 52.2385 8.89893C52.291 8.93045 52.52 9.0166 52.5789 9.0145V9.02291C52.5831 9.02291 52.5831 9.02291 52.5915 9.02921C52.6419 9.03552 52.6797 9.03762 52.7218 9.02711C52.7407 9.01871 52.7638 9.02291 52.7827 9.0145L52.7785 9.02501C52.7701 9.02921 52.7701 9.03762 52.7638 9.04812C52.7617 9.05443 52.7617 9.05443 52.7575 9.06283C52.7323 9.10906 52.7029 9.15109 52.6734 9.19942C52.665 9.20992 52.6566 9.22463 52.644 9.23934L52.6461 9.24774C52.6251 9.27926 52.6062 9.30238 52.5894 9.33179C52.5873 9.3402 52.5873 9.3402 52.5873 9.3486C52.5726 9.3465 52.5516 9.38853 52.5474 9.40324C52.539 9.41795 52.5306 9.43055 52.5222 9.45157C52.5116 9.44946 52.5116 9.45787 52.5032 9.45577V9.46417C52.4717 9.5083 52.4444 9.54822 52.4171 9.58605C52.3793 9.65119 52.3435 9.70162 52.3057 9.75625C52.2952 9.76886 52.2847 9.78777 52.2679 9.80037C52.2448 9.83189 52.2259 9.86131 52.2196 9.89493C52.2091 9.89493 52.2091 9.89493 52.2007 9.90124C52.1986 9.92435 52.1649 9.96427 52.1418 9.98739C52.1355 10.0042 52.1229 10.0084 52.1229 10.0231V10.0294C52.1145 10.042 52.1145 10.042 52.1061 10.0399C52.1145 10.042 52.1145 10.042 52.1145 10.0483C52.104 10.0567 52.0935 10.063 52.0956 10.0693C52.0788 10.0756 52.0683 10.0946 52.0578 10.1093C52.0578 10.145 52.022 10.1765 51.9947 10.1933C51.9926 10.1996 51.9926 10.1996 51.9926 10.208C51.9611 10.2627 51.9275 10.3089 51.8876 10.3635L51.8855 10.3719C51.8708 10.3866 51.8602 10.3992 51.8434 10.4139C51.793 10.4875 51.7468 10.5442 51.7027 10.6136C51.6711 10.643 51.6543 10.6703 51.627 10.6997C51.5745 10.7586 51.524 10.8174 51.4736 10.872C51.4736 10.8783 51.4736 10.8783 51.4652 10.8783C51.4274 10.9161 51.3917 10.954 51.3538 10.9939C51.3538 10.9981 51.3496 10.9981 51.3391 10.9981V11.0065C51.3118 11.038 51.2824 11.0674 51.2614 11.0906V11.0969C51.2551 11.1053 51.2467 11.1074 51.2467 11.1074L51.2446 11.1137C51.2005 11.1578 51.1563 11.2019 51.1122 11.2481C51.1017 11.2544 51.0933 11.2608 51.0849 11.2692C51.0113 11.3364 50.9336 11.3931 50.8727 11.4709C50.8096 11.5192 50.755 11.5654 50.694 11.6075C50.6478 11.6474 50.6058 11.6747 50.5533 11.702L50.547 11.6999C50.4986 11.7693 50.6037 11.9437 50.6583 11.9248C50.8537 11.9416 50.984 11.8491 51.1374 11.7651C51.1815 11.744 51.2404 11.7251 51.2761 11.6873C51.2803 11.6873 51.2803 11.6873 51.2908 11.6894C51.3244 11.66 51.3707 11.6306 51.4127 11.5949C51.44 11.597 51.5598 11.5087 51.5808 11.4856C51.5892 11.4877 51.5892 11.4814 51.5955 11.4793C51.6081 11.473 51.6144 11.4625 51.6333 11.4583L51.6249 11.4478L51.6585 11.4204L51.6627 11.4099C51.6627 11.4099 51.6943 11.391 51.7027 11.3805L51.7111 11.3742C51.7573 11.3322 51.7993 11.286 51.8476 11.2397C51.8476 11.2397 51.8497 11.2355 51.856 11.2355H51.8624C51.8666 11.2271 51.8729 11.2292 51.8729 11.2208C51.8729 11.2082 51.8729 11.2082 51.8834 11.2124C51.9632 11.1389 52.0431 11.0716 52.1229 11.0065C52.1712 10.954 52.2154 10.893 52.2637 10.8552C52.2679 10.851 52.2679 10.851 52.2616 10.8468C52.2847 10.851 52.3414 10.7733 52.3498 10.748C52.3646 10.7333 52.3856 10.7144 52.4045 10.6892V10.6808C52.4339 10.6493 52.4654 10.622 52.4948 10.5905C52.499 10.582 52.5053 10.582 52.5053 10.5757C52.602 10.5001 52.6629 10.3929 52.7386 10.311C52.7638 10.2753 52.7911 10.2332 52.8205 10.1954C52.8773 10.1996 53.0685 9.94746 53.0895 9.90124C53.1882 9.82349 53.2324 9.68691 53.3164 9.59655C53.3269 9.58185 53.3353 9.56924 53.3437 9.55033C53.4005 9.47468 53.4572 9.38012 53.5181 9.29607C53.5434 9.25615 53.5812 9.21412 53.5938 9.16369C53.5938 9.14268 53.8228 8.81699 53.8459 8.80228C53.9678 8.72663 54.159 8.70562 54.2935 8.65519C54.5036 8.58164 54.7285 8.5018 54.9218 8.39673C54.9302 8.39673 54.9302 8.39673 54.9386 8.39883ZM55.4471 11.1935C55.4303 11.1116 55.3862 11.0464 55.3862 10.9645C55.3778 10.9498 55.3757 10.9414 55.3652 10.9309C55.3694 10.8993 55.237 10.8279 55.2139 10.8027C55.2139 10.8027 55.2076 10.8048 55.2034 10.8111C55.1908 10.8006 55.176 10.7943 55.1592 10.7838C55.1046 10.7501 55.05 10.727 54.9848 10.706C54.9071 10.6682 54.8398 10.6283 54.7579 10.5989C54.7285 10.5757 54.7054 10.5694 54.6738 10.5568C54.6654 10.5568 54.6591 10.5568 54.6486 10.5463C54.6171 10.5421 54.5793 10.5337 54.5457 10.5232C54.4574 10.5379 54.3502 10.4917 54.2536 10.5001C54.2452 10.5001 54.2368 10.5001 54.2263 10.5064C54.2032 10.5043 54.1863 10.5022 54.1632 10.5106L54.1527 10.5085L54.1128 10.5022C54.0981 10.5022 54.0624 10.5337 54.0519 10.5505C54.0245 10.561 54.0014 10.582 54.0077 10.6178C54.0161 10.706 54.2368 10.9351 54.3271 10.9477V10.9561C54.3565 10.9792 54.3797 10.996 54.4091 11.0128C54.4196 11.0128 54.4238 11.0233 54.4238 11.0233C54.4952 11.0674 54.552 11.1599 54.5436 11.2397C54.5352 11.2608 54.531 11.2776 54.5204 11.3049C54.4952 11.3238 54.4679 11.3364 54.4427 11.3616H54.4364L54.4259 11.3658C54.4175 11.3658 54.4196 11.3742 54.4196 11.3742C54.3944 11.4373 54.4364 11.5318 54.4742 11.5612C54.491 11.5675 54.4952 11.5759 54.5015 11.5885C54.5036 11.5949 54.5162 11.6201 54.5162 11.6159C54.5541 11.66 54.6108 11.6621 54.6612 11.66C54.7096 11.6558 54.7516 11.6516 54.7852 11.6432C54.8651 11.6537 54.926 11.6012 54.9932 11.5759C55.0374 11.5612 55.0857 11.5528 55.1361 11.5423C55.1613 11.5234 55.1886 11.5192 55.2076 11.5129C55.3315 11.452 55.4912 11.349 55.4471 11.1935Z" fill="#005D7F"/>
<path fill-rule="evenodd" clip-rule="evenodd" d="M67.6885 20.8326C67.6864 20.8221 67.678 20.8326 67.6717 20.8221L67.6675 20.8305C67.6318 20.7864 67.5814 20.654 67.5457 20.509C67.4973 20.3136 67.4616 20.0951 67.512 20.0447L67.5036 20.0405C67.5351 20.011 67.5709 19.9669 67.6066 19.9564C67.699 19.9186 67.8735 20.0005 67.9449 20.0468C67.9638 20.0804 67.9785 20.1119 67.9785 20.1518C67.9764 20.2443 67.9449 20.3472 67.9134 20.4124L67.9113 20.4082C67.9113 20.4292 67.9092 20.4418 67.9029 20.4586C67.8839 20.5258 67.8461 20.7339 67.7999 20.7696L67.7957 20.7759C67.7957 20.7759 67.7999 20.7822 67.7978 20.7927C67.7684 20.8158 67.7621 20.902 67.6885 20.8326ZM68.3042 21.2151C68.3042 21.2088 68.3126 21.1982 68.3126 21.1877C68.3546 21.1331 68.403 21.1037 68.4282 21.0301C68.4282 21.0301 68.4345 21.0259 68.4366 21.0133C68.4366 21.0133 68.4408 21.007 68.4471 21.0028C68.4555 20.9986 68.4555 20.9881 68.4597 20.9839C68.4681 20.9755 68.4744 20.9713 68.4681 20.9671C68.4933 20.9146 68.548 20.8284 68.529 20.7612C68.529 20.7528 68.5963 20.4901 68.5753 20.4376L68.5795 20.4355C68.5522 20.4019 68.548 20.2716 68.6173 20.2905C68.632 20.2716 68.7413 20.3178 68.756 20.3367C68.7959 20.3556 68.8232 20.3746 68.8526 20.3914C68.9241 20.4418 69.0165 20.4901 69.0838 20.57L69.088 20.5763C69.0901 20.6141 69.088 20.6246 69.0481 20.6372C69.006 20.633 68.9703 20.6393 68.9325 20.675C68.9367 20.6939 68.943 20.7066 68.9388 20.7192C68.9577 20.7549 68.9724 20.7864 68.9913 20.8221C69.0733 20.8662 69.1594 20.9188 69.2309 20.9692C69.3065 21.0407 69.3864 21.11 69.4641 21.1772C69.4914 21.1982 69.5629 21.2214 69.6028 21.2088C69.607 21.2151 69.6133 21.2214 69.6217 21.2214L69.6154 21.2151L69.6301 21.2172C69.6469 21.2235 69.6679 21.2256 69.6868 21.2361L69.6826 21.2424L69.6868 21.2508C69.7163 21.2466 69.7373 21.2361 69.7751 21.2298L69.7793 21.234C69.8024 21.2172 69.8591 21.2487 69.8991 21.2298C69.9663 21.1814 69.9726 20.9377 69.9243 20.881C69.9222 20.8515 69.9222 20.8284 69.9201 20.7969C69.8949 20.7696 69.8802 20.715 69.8633 20.6834C69.815 20.5994 69.7562 20.5258 69.6952 20.4418C69.691 20.4376 69.6847 20.4397 69.6784 20.4376C69.6637 20.4187 69.649 20.3998 69.6343 20.3661C69.607 20.343 69.5776 20.3262 69.5461 20.2989L69.5208 20.2674C69.5166 20.2632 69.5166 20.2632 69.504 20.2611L69.4893 20.2443L69.4809 20.2317L69.4746 20.238L69.4494 20.2043C69.4326 20.1896 69.4179 20.1791 69.4032 20.1644C69.3821 20.1497 69.3674 20.1308 69.3464 20.1035C69.3296 20.0972 69.3065 20.0867 69.2918 20.0699C69.2834 20.0678 69.2729 20.0552 69.2645 20.0468C69.2645 20.0405 69.2582 20.0341 69.2456 20.0362L69.2309 20.0152C69.2162 20.0068 69.2057 19.9984 69.1951 19.9963C69.1867 19.99 69.1762 19.9837 69.1699 19.9774C69.1552 19.9627 69.1342 19.9501 69.1258 19.9396C69.1027 19.927 69.0817 19.9123 69.0628 19.8997L69.067 19.906L69.0607 19.9123C69.046 19.8955 69.0207 19.8723 68.9976 19.8723L68.9913 19.8639C68.9724 19.8513 68.9535 19.8366 68.9325 19.8261C68.9031 19.8072 68.8821 19.7925 68.8568 19.7736C68.8505 19.7652 68.8379 19.7631 68.8379 19.7631C68.8274 19.7631 68.8169 19.7526 68.8064 19.7526V19.7421L68.8442 19.7106C68.9304 19.6496 69.0355 19.6223 69.1342 19.6034C69.1405 19.5971 69.1447 19.5929 69.1594 19.5929C69.2057 19.574 69.2582 19.553 69.3086 19.5298C69.4221 19.4794 69.5461 19.4059 69.6343 19.3134C69.6406 19.3092 69.6469 19.3029 69.6469 19.3029C69.6595 19.2819 69.6679 19.2672 69.6847 19.2504C69.691 19.2462 69.6931 19.2357 69.7016 19.2315C69.7436 19.1747 69.7877 19.1159 69.8066 19.0445C69.836 19.0129 69.8717 18.9331 69.8717 18.8932C69.8654 18.8764 69.8717 18.8595 69.8717 18.8406C69.8781 18.8238 69.8781 18.8028 69.8802 18.7923C69.8718 18.7713 69.8633 18.744 69.8591 18.7146C69.8654 18.6998 69.8675 18.6809 69.876 18.6599C69.8717 18.6452 69.8781 18.6284 69.8781 18.6179L69.8591 18.5969C69.7898 18.5002 69.7268 18.3952 69.6511 18.3069L69.6427 18.3111L69.6196 18.2775L69.6385 18.2607C69.6511 18.2796 69.7226 18.2523 69.7478 18.2754L69.7562 18.2691C69.8003 18.2733 69.8423 18.2754 69.8949 18.2859L69.8991 18.2943C69.8991 18.2943 69.9054 18.2985 69.9096 18.2943L69.9138 18.2901C69.9138 18.2901 69.9201 18.2985 69.9264 18.2901C69.9432 18.3132 69.9873 18.3132 70.0125 18.3174L70.0167 18.3216C70.0335 18.3363 70.1071 18.3468 70.1365 18.3447C70.147 18.3447 70.147 18.3447 70.1512 18.3489C70.1785 18.3594 70.2038 18.3678 70.2332 18.3763C70.2437 18.3784 70.2647 18.3699 70.2731 18.372C70.292 18.3594 70.6702 18.496 70.7333 18.4834L70.7564 18.5086C70.7564 18.5086 70.8215 18.5128 70.8362 18.5233L70.832 18.5149C70.8425 18.5149 70.8425 18.5149 70.8509 18.5128L70.8551 18.517C70.8551 18.517 71.0884 18.5759 71.1073 18.5843L71.1136 18.5822L71.1178 18.5759C71.1682 18.5864 71.2187 18.599 71.2586 18.6116C71.267 18.6074 71.267 18.6074 71.2733 18.6116L71.2775 18.62C71.288 18.6221 71.2985 18.62 71.309 18.6242L71.3258 18.641C71.3258 18.641 71.3321 18.6389 71.3426 18.6389C71.3489 18.6326 71.3615 18.6347 71.3637 18.6389C71.3742 18.6389 71.3847 18.6536 71.3952 18.6515C71.4141 18.662 71.433 18.6578 71.4477 18.6662L71.454 18.6725C71.4561 18.6767 71.4687 18.6809 71.4729 18.683L71.4771 18.6788C71.5065 18.6872 71.5275 18.6977 71.5486 18.7146L71.5528 18.7083L71.5633 18.7146C71.5801 18.7377 71.786 18.7734 71.828 18.7902L71.8217 18.7818C71.828 18.7902 71.8343 18.786 71.8427 18.7797L71.8469 18.7839C71.8469 18.7839 71.849 18.7923 71.8617 18.7923L71.8553 18.7881C71.868 18.7902 71.868 18.7902 71.8721 18.7818L71.8806 18.7881C71.8911 18.7902 71.9037 18.7902 71.9142 18.7923C71.9646 18.7902 72.0192 18.7944 72.0613 18.8238C72.1033 18.849 72.1474 18.91 72.1979 18.9037L72.2042 18.91C72.2924 18.9394 72.3786 18.973 72.4584 18.9961C72.5172 19.0234 72.574 19.0571 72.6265 19.0844C72.7043 19.1012 72.782 19.1222 72.8555 19.139C72.906 19.16 72.9669 19.181 73.0173 19.2041C73.072 19.2273 73.1287 19.2462 73.1833 19.2609C73.2653 19.2987 73.3493 19.3786 73.4481 19.3596L73.4544 19.3533L73.4586 19.3596C73.488 19.368 73.5154 19.3744 73.5406 19.3849C73.5469 19.3891 73.5469 19.3891 73.5511 19.3933C73.5637 19.3849 73.6834 19.4101 73.7024 19.4164C73.7297 19.4227 73.757 19.4311 73.778 19.4458C73.8095 19.45 73.8368 19.4563 73.8662 19.4626C73.8726 19.471 73.8831 19.4731 73.8915 19.471C73.9104 19.4605 74.1373 19.4857 74.1772 19.4836C74.2697 19.4815 74.3306 19.4689 74.4084 19.4269C74.4189 19.4269 74.4252 19.4206 74.4378 19.4101C74.442 19.4059 74.4609 19.4038 74.4756 19.3996C74.5282 19.4584 74.7971 19.2777 74.7971 19.2378L74.7992 19.2441C74.8812 19.1789 74.9211 19.0718 74.9358 18.9688L74.9274 18.9646C74.9358 18.9562 74.9106 18.8133 74.9043 18.7986C74.8959 18.7755 74.8896 18.7524 74.877 18.7272C74.8833 18.7251 74.8812 18.7167 74.8854 18.7104C74.877 18.6893 74.8686 18.6641 74.8602 18.641C74.8391 18.5969 74.8223 18.5465 74.8034 18.5023C74.7887 18.4708 74.7698 18.4372 74.7635 18.4057L74.7572 18.3973L74.7488 18.4015L74.7026 18.3405L74.6942 18.3342L74.6899 18.3405L74.6584 18.3069C74.6437 18.2964 74.6269 18.2901 74.6122 18.2838C74.5996 18.2817 74.5975 18.2754 74.5828 18.2754L74.5681 18.2544L74.5618 18.2502C74.5492 18.2082 74.4945 18.1535 74.463 18.1409C74.4378 18.1073 74.4084 18.0884 74.3832 18.0632L74.3748 18.0611C74.3748 18.0611 74.3664 18.0611 74.3622 18.0569L74.3685 18.0548C74.3537 18.0464 74.339 18.0379 74.3243 18.0253C74.3096 18.0169 74.3054 18.0127 74.2886 18.0043L74.2844 17.998C74.2781 17.9938 74.2676 17.9833 74.2676 17.9728L74.2655 17.9602C74.2592 17.9728 74.2592 17.9728 74.2508 17.9602C74.234 17.9518 74.2172 17.9308 74.2025 17.9224C74.1835 17.9161 74.1772 17.9098 74.1709 17.8993L74.173 17.9035L74.1688 17.9098C74.1415 17.8909 74.1226 17.8762 74.11 17.8614L74.1016 17.853C74.0953 17.8572 74.0869 17.8509 74.0869 17.8509C74.0617 17.832 74.0407 17.8152 74.0175 17.8026C74.0028 17.7942 73.9839 17.7837 73.9755 17.7732C73.9629 17.7711 73.9482 17.7648 73.9314 17.7585L73.923 17.7522L73.9209 17.7438C73.9083 17.7438 73.9041 17.7375 73.8978 17.7438L73.9041 17.7375L73.8978 17.7312C73.8831 17.7249 73.8726 17.7249 73.8536 17.7186C73.8116 17.6912 73.7654 17.6681 73.7129 17.6408C73.6898 17.6303 73.6624 17.6219 73.6414 17.6093C73.6351 17.6051 73.633 17.5946 73.6246 17.6009L73.6183 17.5925C73.5826 17.5736 73.5406 17.5568 73.5006 17.5399L73.509 17.5336C73.4859 17.5294 73.4691 17.5231 73.4544 17.5168L73.4586 17.5105C73.4502 17.5084 73.4439 17.5063 73.4334 17.5042L73.4292 17.4979C73.3956 17.4832 73.3767 17.4685 73.3388 17.4559C73.2611 17.4223 73.1854 17.3782 73.0972 17.3361C73.0867 17.3361 73.0762 17.334 73.0615 17.3298C73.051 17.3256 73.0405 17.3172 73.0321 17.3046C72.9753 17.2857 72.8471 17.2058 72.7862 17.2079C72.7715 17.1974 72.7547 17.1911 72.7295 17.1785L72.7232 17.168L72.7169 17.1722L72.7127 17.168L72.7064 17.1596C72.7064 17.1596 72.6937 17.1638 72.6874 17.1638C72.6832 17.1575 72.6727 17.1554 72.6664 17.147L72.6622 17.1428C72.6454 17.1365 72.6349 17.1344 72.6244 17.1218C72.6202 17.1323 72.616 17.1218 72.6076 17.1281C72.5908 17.1197 72.5782 17.1113 72.5656 17.1134C72.5572 17.1071 72.553 17.1113 72.553 17.1113L72.5488 17.1071C72.5362 17.1071 72.5341 17.1008 72.5214 17.0987C72.5025 17.0945 72.4815 17.0903 72.4668 17.0798C72.4227 17.0672 72.3723 17.0567 72.3281 17.0398C72.3197 17.0272 72.3155 17.023 72.2987 17.0167C72.284 17.0083 72.2777 16.9999 72.2651 16.9999L72.2525 16.9831C72.2525 16.9831 72.2462 16.9747 72.2399 16.9831C72.221 16.9663 72.1978 16.9537 72.1768 16.9432L72.1705 16.9348C72.1663 16.9327 72.1621 16.9348 72.1558 16.9285C72.0991 16.9222 72.0697 16.8844 72.0192 16.8591C72.0045 16.8465 71.994 16.8465 71.9835 16.8339C71.952 16.8087 71.9226 16.7898 71.889 16.7667C71.8806 16.7562 71.8701 16.7583 71.8553 16.7436L71.8343 16.7121L71.8385 16.7036C71.828 16.7078 71.8259 16.6994 71.8259 16.6994C71.8175 16.6952 71.8175 16.6952 71.8259 16.691L71.8175 16.6826C71.8154 16.6742 71.807 16.6721 71.807 16.6721C71.8049 16.6658 71.7944 16.6637 71.7944 16.6637C71.7503 16.6091 71.6977 16.5482 71.6767 16.4914C71.6662 16.4893 71.6662 16.483 71.6578 16.4767L71.6515 16.483V16.4662C71.6431 16.4599 71.6431 16.4599 71.6326 16.4599L71.5717 16.3822C71.5633 16.3737 71.5507 16.3611 71.5486 16.3422C71.5296 16.3359 71.5149 16.3296 71.496 16.3149C71.4708 16.3254 71.4498 16.3233 71.4267 16.3233L71.4183 16.3254C71.3868 16.3233 71.3552 16.3254 71.3258 16.3233C71.3111 16.3233 71.3027 16.3212 71.2964 16.3254C71.2775 16.3128 71.2523 16.3086 71.2355 16.3023L71.2313 16.3086C71.1976 16.3359 71.1535 16.3611 71.1325 16.4011C71.1262 16.4074 71.1262 16.4074 71.122 16.4116C71.0821 16.4536 71.0379 16.4977 70.9959 16.5313C70.9875 16.5587 70.9791 16.5776 70.977 16.5965L70.9728 16.6028C70.9539 16.6175 70.9602 16.8108 70.9602 16.8507L70.9497 16.8486L70.9539 16.8528C70.9602 16.8612 70.9539 16.8633 70.9602 16.8717C70.9518 16.8781 70.9581 16.8823 70.9497 16.8844C70.9539 16.9369 70.9119 17.0314 70.9287 17.084C70.9203 17.0861 70.9266 17.0945 70.9203 17.0966C70.9161 17.1512 70.9119 17.2101 70.9014 17.271C70.9014 17.2794 70.9014 17.2794 70.9077 17.2836C70.9056 17.3025 70.914 17.3235 70.914 17.3508C70.9014 17.3803 70.9077 17.4181 70.9119 17.4454C70.914 17.4559 70.914 17.4559 70.9077 17.4685C70.9077 17.4685 70.9077 17.479 70.9161 17.4832C70.9014 17.4958 70.9077 17.6513 70.9161 17.6639C70.9056 17.6744 70.9014 17.6996 70.9056 17.727C70.9077 17.7564 70.9056 17.7753 70.9161 17.79C70.9287 17.8026 70.9308 17.8425 70.9497 17.8551C70.9938 17.8909 71.204 17.9791 71.2544 17.9602C71.2649 17.9602 71.2838 17.9602 71.2985 17.9644C71.3847 17.956 71.5149 17.9602 71.5843 17.9014C71.599 17.893 71.6137 17.8909 71.6263 17.8783L71.6452 17.8741L71.6641 17.8614C71.683 17.8341 71.6936 17.811 71.6851 17.7732C71.7041 17.7564 71.7083 17.7396 71.7167 17.7291C71.7167 17.7291 71.7272 17.7249 71.7209 17.7207C71.7629 17.6975 71.8007 17.6639 71.8427 17.6366L71.8406 17.6303C71.8469 17.6345 71.8532 17.6282 71.8532 17.6282C71.8995 17.6135 71.9457 17.6177 71.9898 17.6093C72.0129 17.6219 72.0255 17.6303 72.0466 17.6408C72.055 17.6366 72.0613 17.6324 72.0655 17.6366L72.0718 17.6324C72.0781 17.6366 72.0886 17.6366 72.0991 17.6534C72.1306 17.666 72.1684 17.6723 72.2063 17.687C72.2273 17.6975 72.2504 17.7017 72.2714 17.7165C72.2777 17.7228 72.2903 17.7228 72.305 17.7291L72.2966 17.7312C72.3113 17.7228 72.4605 17.7942 72.4815 17.8089L72.4836 17.7984C72.5172 17.811 72.553 17.8299 72.5908 17.8383C72.6307 17.8614 72.6727 17.8762 72.7127 17.8993C72.7484 17.9035 72.7862 17.9119 72.824 17.9224C72.885 17.956 72.9438 17.9896 72.9963 18.019C73.011 18.0379 73.03 18.0422 73.0363 18.0569C73.0363 18.0569 73.0426 18.0632 73.0363 18.0695L73.0426 18.0737C73.0531 18.0632 73.1161 18.101 73.1287 18.1157C73.2128 18.164 73.3031 18.2145 73.3872 18.2691C73.4019 18.2754 73.425 18.2859 73.4355 18.2985C73.4586 18.3132 73.4733 18.3321 73.4943 18.3447L73.509 18.3615L73.5006 18.3678C73.5153 18.3889 73.4502 18.3931 73.4355 18.3931C73.2737 18.4162 73.0867 18.3615 72.9165 18.3531C72.8766 18.3552 72.8303 18.3489 72.7799 18.351L72.7736 18.3447C72.5698 18.3111 72.3596 18.288 72.1579 18.2691L72.1516 18.2754C72.1474 18.2712 72.1411 18.2754 72.1327 18.2691C72.1201 18.2712 72.1033 18.2628 72.0823 18.2691C72.0781 18.2628 72.0718 18.2691 72.0697 18.2628L72.0634 18.267C72.0571 18.2607 72.0508 18.267 72.0466 18.2586L72.0403 18.267C72.0066 18.2607 71.9688 18.2523 71.931 18.2544C71.9247 18.2502 71.6977 18.2229 71.6788 18.225L71.6725 18.2187C71.6641 18.2187 71.6473 18.2081 71.6347 18.2124L71.6263 18.1997L71.6074 18.2145C71.5948 18.2124 71.5843 18.2082 71.5801 18.206L71.5759 18.2082L71.5675 18.2039L71.5633 18.2082C71.5444 18.2018 71.5254 18.2018 71.5065 18.2018C71.4708 18.1955 71.4414 18.185 71.4099 18.1808C71.3952 18.1808 71.3931 18.1745 71.3868 18.1808L71.3826 18.1745L71.3763 18.1682C71.3552 18.1682 71.3342 18.1724 71.3132 18.1682C71.3027 18.1619 71.2754 18.1619 71.2523 18.1619H71.2124C71.1619 18.1493 71.1178 18.143 71.0737 18.1409L71.0695 18.1346C70.9644 18.1199 70.8615 18.1052 70.7543 18.0863C70.7438 18.0863 70.7438 18.0863 70.7375 18.0779L70.7312 18.0863C70.7123 18.0842 70.6828 18.0737 70.6597 18.0737C70.6324 18.0632 70.6135 18.0632 70.5841 18.0569C70.5631 18.0548 70.5378 18.0506 70.521 18.0422L70.4118 18.0337L70.4076 18.0274L70.3992 18.0316C70.3929 18.0211 70.3782 18.0211 70.3698 18.019C70.3698 18.019 70.3634 18.0106 70.3571 18.0169L70.3529 18.0085C70.2815 17.998 70.2038 17.9812 70.1302 17.9728C70.0945 17.9581 70.0609 17.956 70.0167 17.9518C70.0041 17.9497 69.9957 17.9392 69.9831 17.9371L69.9768 17.9413L69.9705 17.935C69.939 17.935 69.9117 17.9224 69.8717 17.9119C69.8276 17.9119 69.7898 17.8993 69.7457 17.8993C69.7352 17.8951 69.7352 17.8951 69.7226 17.8951L69.7163 17.8909L69.71 17.893C69.7057 17.8888 69.6952 17.8867 69.6826 17.8867L69.6784 17.8909C69.5881 17.8846 69.504 17.8698 69.4116 17.8551C69.4116 17.8551 69.2077 17.811 69.2035 17.811C69.1426 17.8026 69.0901 17.7942 69.0354 17.79C69.0207 17.7774 68.9976 17.7774 68.9808 17.769L68.9766 17.7732L68.9703 17.7669C68.9514 17.7837 68.8736 17.7879 68.8316 17.8236C68.8253 17.8299 68.8064 17.832 68.8043 17.8362C68.7959 17.8425 68.7875 17.8341 68.7833 17.8425C68.7455 17.8656 68.695 17.893 68.6467 17.9119C68.5522 17.9917 68.424 18.0506 68.3904 18.1745C68.3904 18.1745 68.3904 18.185 68.3967 18.1892C68.3904 18.1955 68.3883 18.2081 68.3946 18.2124C68.3883 18.2187 68.3883 18.2313 68.3883 18.2313C68.403 18.246 68.4177 18.2628 68.4408 18.2796C68.4597 18.2922 68.4807 18.3069 68.4954 18.3132C68.5353 18.3321 68.5753 18.3426 68.6068 18.3552C68.6215 18.3636 68.6383 18.372 68.6551 18.3784C68.6614 18.3847 68.6761 18.3931 68.6803 18.3973C68.7413 18.4225 68.7665 18.4645 68.8148 18.496C68.8737 18.5317 68.9451 18.5696 69.006 18.6032C69.0207 18.6095 69.0312 18.6347 69.0292 18.6431C69.0607 18.7545 68.6467 18.973 68.5648 18.9877C68.4492 19.0613 68.342 19.139 68.2265 19.2126C68.1088 19.3134 68.1109 19.3428 67.9533 19.3071L67.9491 19.3134C67.9365 19.3113 67.9281 19.3113 67.9092 19.3029L67.905 19.305C67.7011 19.2714 67.4847 19.2336 67.2893 19.2336C67.2662 19.2294 67.2557 19.2315 67.2452 19.2273C67.1863 19.2462 67.1296 19.2651 67.0708 19.2819C67.0624 19.284 67.0603 19.2777 67.0519 19.284L67.0014 19.3302C66.9888 19.3155 66.93 19.3554 66.9216 19.3744C66.8585 19.4227 66.806 19.4794 66.8123 19.5635C66.8102 19.5698 66.806 19.6034 66.7934 19.6412C66.7871 19.6685 66.7745 19.7064 66.7829 19.7148C66.7661 19.7253 66.7535 19.7799 66.7556 19.8051C66.7535 19.8135 66.7577 19.8177 66.7556 19.8261C66.7556 19.8366 66.7535 19.8492 66.7577 19.8681C66.7577 19.8766 66.7535 19.8955 66.7556 19.8997C66.7304 19.9837 66.7703 20.2043 66.8102 20.2653C66.806 20.2905 66.8123 20.3073 66.8186 20.3262C66.8522 20.4649 66.806 20.6204 66.8417 20.7654V20.778C66.8711 20.8326 66.8774 20.9188 66.9237 20.9713C66.9174 20.9755 66.9342 20.9965 66.9405 21.007L66.9594 21.0322C67.1359 21.2655 67.449 21.4336 67.7201 21.4525C67.7537 21.4546 67.781 21.4525 67.8104 21.4588C67.926 21.4273 68.0373 21.3937 68.1508 21.3537C68.2244 21.3222 68.2517 21.2361 68.3042 21.2151ZM70.6597 16.607L70.6555 16.6007C70.6555 16.6007 70.6471 16.5944 70.6408 16.6007C70.5967 16.586 70.5505 16.5776 70.5021 16.5692C70.4916 16.5608 70.4769 16.5608 70.4643 16.5608C70.4391 16.5545 70.4097 16.544 70.3845 16.5397C70.334 16.5271 70.2899 16.5103 70.2353 16.4956L70.2332 16.5019C70.2038 16.4935 70.1827 16.4872 70.1512 16.483L70.1491 16.4767L70.1428 16.483C70.1365 16.4746 70.126 16.4746 70.1239 16.4683L70.1155 16.4725C70.0903 16.4662 70.0735 16.4557 70.0546 16.4494L70.0504 16.4431C70.0315 16.4347 70.023 16.4368 70.0125 16.4221C69.9726 16.4032 69.939 16.3822 69.9012 16.3632C69.8801 16.3464 69.8591 16.3338 69.836 16.3233L69.8318 16.3191C69.8192 16.3191 69.815 16.3107 69.8045 16.3065L69.8108 16.3044C69.7688 16.275 69.7205 16.2435 69.6784 16.2183L69.6721 16.2246C69.6511 16.212 69.6343 16.2035 69.6175 16.1951L69.6154 16.1888V16.1783C69.5881 16.1678 69.5671 16.1552 69.544 16.1447C69.525 16.1279 69.5019 16.1153 69.4872 16.1111L69.4809 16.1048C69.4683 16.1027 69.4641 16.0943 69.4536 16.0943L69.4431 16.0817C69.4326 16.0712 69.4179 16.0628 69.4095 16.0628L69.3927 16.0481C69.3801 16.0438 69.3758 16.0396 69.3758 16.0396C69.3653 16.0228 69.359 16.0186 69.3485 16.0165L69.3548 16.0123C69.3485 16.006 69.3485 16.006 69.3464 15.9997C69.3296 15.9955 69.3065 15.9787 69.2918 15.9724C69.2855 15.9682 69.2708 15.9598 69.2603 15.9472L69.2519 15.9556C69.2309 15.9409 69.212 15.9262 69.1951 15.9199C69.1699 15.8989 69.1426 15.8842 69.1174 15.861C69.1006 15.8547 69.0838 15.8358 69.0691 15.8295L69.0417 15.798C69.0312 15.798 69.0292 15.7938 69.0165 15.7896C69.0165 15.7791 69.006 15.7686 69.0018 15.7623C68.9976 15.7539 68.9871 15.7413 68.9724 15.7413C68.9703 15.735 68.9598 15.735 68.9556 15.7392L68.9598 15.735C68.9514 15.7329 68.9451 15.7266 68.9388 15.7203C68.9325 15.714 68.9178 15.7097 68.9115 15.7055C68.882 15.6635 68.8232 15.6404 68.7728 15.6341C68.7602 15.6257 68.7308 15.6173 68.714 15.6089C68.7013 15.611 68.6908 15.6173 68.6782 15.6173C68.6467 15.6257 68.6068 15.6278 68.5774 15.6299C68.5585 15.6362 68.548 15.6446 68.5248 15.653C68.4072 15.7476 68.363 15.8589 68.3525 16.0018C68.342 16.0438 68.3357 16.0859 68.3357 16.1279C68.3357 16.1279 68.3336 16.1426 68.342 16.1489C68.3294 16.2876 68.3252 16.4074 68.4072 16.5292L68.4891 16.628L68.4996 16.6301C68.4996 16.6301 68.508 16.6259 68.5101 16.6301C68.529 16.6364 68.5396 16.6574 68.5585 16.6637C68.5795 16.6637 68.6005 16.6742 68.6236 16.6784C68.6572 16.6973 68.6866 16.7205 68.7203 16.7373C68.7518 16.7499 69.0123 16.7982 69.0333 16.7898C69.0418 16.7856 69.1678 16.7877 69.1804 16.7919L69.1762 16.7856C69.1846 16.7898 69.1846 16.7898 69.193 16.7835L69.1972 16.7877C69.212 16.7898 69.2204 16.7898 69.2309 16.7919L69.2435 16.7982C69.3149 16.8171 69.3696 16.7709 69.4284 16.7583C69.4704 16.7499 69.5208 16.7583 69.5629 16.7373C69.5881 16.731 69.6196 16.7289 69.649 16.7247C69.6574 16.7268 69.6574 16.7268 69.6616 16.7352C69.67 16.7394 69.9789 16.7184 70.0083 16.7142C70.0125 16.71 70.0188 16.7121 70.0188 16.7121C70.0525 16.7078 70.0819 16.7036 70.1239 16.7036C70.1428 16.6931 70.1722 16.691 70.1996 16.6868C70.2059 16.6952 70.2143 16.691 70.2185 16.6931C70.2185 16.6931 70.2836 16.691 70.3698 16.6784C70.4496 16.6658 70.5484 16.6595 70.5694 16.6616L70.5778 16.6574C70.5946 16.6595 70.6093 16.6616 70.624 16.6658C70.6492 16.6448 70.6828 16.6511 70.6597 16.607Z" fill="#005D7F"/>
</svg>
