<?xml version="1.0" encoding="utf-8"?>
<!-- Generator: Adobe Illustrator 26.0.3, SVG Export Plug-In . SVG Version: 6.00 Build 0)  -->
<svg version="1.1" id="Layer_1" xmlns="http://www.w3.org/2000/svg" xmlns:xlink="http://www.w3.org/1999/xlink" x="0px" y="0px"
	 viewBox="0 0 72 63.19" style="enable-background:new 0 0 72 63.19;" xml:space="preserve">
<style type="text/css">
	.st0{fill:#A6192E;}
	.st1{fill:#FFFFFF;}
	.st2{fill:#54585A;}
</style>
<g>
	<path class="st0" d="M72,36H0V0h72V36z"/>
	<path class="st1" d="M59.05,17.92c-0.56,0.07-0.99,0.09-1.28,0.09c-0.29,0-0.72-0.04-1.3-0.11c0.09,0.86,0.11,1.17,0.13,1.87v1.12
		v1.15l0.02,5.36c0,2.14,0.07,2.59,0.58,3.44c0.32,0.52,0.77,0.99,1.33,1.37c1.06,0.74,2.21,1.01,4.3,1.01
		c1.96,0,3.17-0.29,4.25-1.06c1.58-1.1,1.91-2.09,1.91-5.74l-0.02-3.54c0-0.29,0.02-1.06,0.04-2.3c0-0.94,0.02-1.62,0.05-1.98
		c0.02-0.16,0.04-0.38,0.07-0.7c-0.52,0.05-0.9,0.09-1.15,0.09c-0.25,0-0.63-0.04-1.12-0.09c0.09,0.79,0.13,1.1,0.16,1.78
		c0.07,0.9,0.09,1.98,0.09,3.17v3.51c0,2.47-0.07,3.02-0.54,3.71c-0.18,0.25-0.49,0.52-0.9,0.76c-0.76,0.47-1.6,0.65-2.72,0.65
		c-1.6,0-3.08-0.59-3.65-1.42c-0.45-0.68-0.47-0.95-0.5-3.29v-4.59c0-0.25,0.02-0.68,0.04-1.24c0-0.56,0.02-0.92,0.02-1.06
		C58.91,19.14,58.94,18.8,59.05,17.92 M52.92,20.11c-0.04-0.47-0.07-0.83-0.07-1.08c0-0.32,0.02-0.56,0.11-1.13
		c-0.88,0.11-1.19,0.11-1.71,0.11h-2.3l-2.66-0.02l-1.53-0.05c0.09,1.78,0.11,2.5,0.16,3.63v1.21v4.95c0,1.62-0.02,2.68-0.04,3.2
		c-0.05,0.45-0.09,1.17-0.18,2.09c0.52-0.04,0.9-0.07,1.17-0.07c0.32,0,0.79,0.02,1.42,0.09c-0.16-1.96-0.16-2.3-0.16-5v-1.91h2.37
		c0.94,0,1.53,0.05,2.95,0.23c-0.04-0.47-0.07-0.83-0.07-1.08c0-0.29,0.02-0.56,0.12-1.15c-1.22,0.18-1.64,0.2-2.68,0.2h-2.66v-0.95
		v-2.63l0.02-0.9h2.41c0.61,0,1.58,0.04,2.39,0.14C52.18,20.02,52.5,20.04,52.92,20.11 M40.19,20.51c0.11-0.49,0.16-0.65,0.31-1.13
		c0.14-0.38,0.18-0.49,0.41-0.9c-0.67-0.25-0.95-0.34-1.46-0.45c-0.72-0.16-1.42-0.25-2.16-0.25c-1.6,0-2.68,0.38-3.53,1.24
		c-0.76,0.76-1.22,1.85-1.22,2.99c0,1.33,0.49,2.3,1.55,3.04c0.54,0.38,0.97,0.61,2.12,1.13c1.17,0.54,1.51,0.7,2.02,1.06
		c0.79,0.54,1.17,1.17,1.17,1.91c0,1.53-1.24,2.57-3.04,2.57c-0.79,0-1.6-0.18-2.34-0.56c-0.52-0.25-0.83-0.47-1.55-1.08
		c-0.18,1.06-0.27,1.37-0.68,2.25c1.06,0.52,1.49,0.65,2.59,0.81c0.56,0.09,1.04,0.13,1.51,0.13c2.03,0,3.53-0.65,4.5-1.91
		c0.65-0.88,0.97-1.78,0.97-2.74c0-0.72-0.18-1.44-0.52-1.96c-0.43-0.68-1.08-1.17-2.59-1.91c-2.11-1.06-2.43-1.22-2.93-1.6
		c-0.56-0.45-0.88-1.06-0.88-1.73c0-1.31,0.92-2.16,2.32-2.16c0.38,0,0.97,0.11,1.44,0.25C38.95,19.75,39.33,19.93,40.19,20.51"/>
</g>
<g>
	<path class="st2" d="M3.83,47.08c-0.25-1.03-0.85-1.52-1.57-1.52s-1.13,0.47-1.13,1.04c0,0.65,0.37,0.92,1.51,1.11
		c1.43,0.26,2.09,0.83,2.09,2c0,0.68-0.43,2.04-2.46,2.04c-1.11,0-1.81-0.38-2.22-0.7v-1.75H0.5c0.17,1.23,0.81,1.91,1.78,1.91
		c0.88,0,1.35-0.5,1.35-1.18c0-0.58-0.23-0.94-1.22-1.15c-1.45-0.31-2.3-0.59-2.3-1.92c0-0.69,0.42-1.91,2.2-1.91
		c0.98,0,1.66,0.31,1.97,0.56v1.46H3.83z"/>
	<path class="st2" d="M7.78,51.21l0.52,0.03v0.44H5.95v-0.44l0.55-0.03l0.07-0.08v-5.47L6.5,45.58l-0.55-0.03V45.1H8.3v0.44
		l-0.52,0.03l-0.07,0.08v5.47L7.78,51.21z"/>
	<path class="st2" d="M15.11,46.44l-1.5,4.27h-0.99l-1.56-4.33h-0.06v4.75l0.07,0.08l0.54,0.03v0.44h-1.9v-0.44l0.55-0.03l0.07-0.08
		v-5.47l-0.07-0.08l-0.55-0.03V45.1h2.13c0.21,0.62,1.29,3.59,1.5,4.21h0.04l1.46-4.21h2.01v0.44l-0.52,0.03l-0.07,0.08v5.47
		l0.07,0.08l0.52,0.03v0.44h-2.33v-0.44l0.56-0.03l0.08-0.08v-4.68H15.11z"/>
	<path class="st2" d="M23.32,48.37c0,1.96-0.53,3.37-2.62,3.37c-2.06,0-2.53-1.42-2.53-3.33c0-1.71,0.59-3.34,2.65-3.34
		C22.78,45.07,23.32,46.53,23.32,48.37z M19.45,48.43c0,1.41,0.08,2.8,1.32,2.8c1.26,0,1.27-1.33,1.27-3.05
		c0-1.41-0.13-2.61-1.27-2.61C19.59,45.57,19.45,46.78,19.45,48.43z"/>
	<path class="st2" d="M29.49,49.98l-0.01-4.32l-0.07-0.08l-0.57-0.03V45.1h1.9v0.44l-0.52,0.03l-0.08,0.08v6.03h-0.92l-3.3-5.17
		H25.9v4.61l0.09,0.08l0.5,0.03v0.44H24.6v-0.44l0.56-0.03l0.07-0.08v-5.47l-0.07-0.08l-0.55-0.03V45.1h1.73l3.13,4.87H29.49z"/>
	<path class="st2" d="M36.41,51.13l0.07,0.08l0.56,0.03v0.44h-2.4v-0.44l0.56-0.03l0.07-0.08v-5.46l-0.07-0.08l-0.56-0.03v-0.44
		h4.74v1.54h-0.43c-0.26-0.99-0.42-1.03-1.33-1.03h-1.19v2.59h0.73c0.79,0,0.84-0.09,1-0.87h0.42v2.27h-0.42
		c-0.16-0.77-0.25-0.89-0.99-0.89h-0.74L36.41,51.13z"/>
	<path class="st2" d="M43.42,45.1c1.61,0,2.2,0.76,2.2,1.8c0,0.81-0.42,1.51-1.31,1.74l1.38,2.38c0.08,0.14,0.13,0.17,0.3,0.2
		l0.4,0.08v0.39h-1.64c-0.22-0.48-1.3-2.43-1.52-2.91h-0.72v2.35l0.07,0.08l0.51,0.03v0.44h-2.35v-0.44l0.55-0.03l0.08-0.08v-5.47
		l-0.08-0.08l-0.55-0.03V45.1H43.42z M43.26,45.6H42.5v2.67h0.73c0.63,0,1.13-0.48,1.13-1.37C44.36,46,43.9,45.6,43.26,45.6z"/>
	<path class="st2" d="M51.08,45.11l2.05,6.02l0.08,0.08l0.43,0.03v0.44H51.3v-0.44l0.59-0.03l0.06-0.07l-0.39-1.16h-2.41l-0.39,1.14
		l0.06,0.08l0.6,0.03v0.44h-1.92v-0.44l0.46-0.03l0.07-0.08l2.08-6.02H51.08z M49.32,49.48h2.07l-1.01-3.04h-0.04L49.32,49.48z"/>
	<path class="st2" d="M58.7,47.08c-0.25-1.03-0.85-1.52-1.57-1.52S56,46.03,56,46.6c0,0.65,0.37,0.92,1.51,1.11
		c1.43,0.26,2.09,0.83,2.09,2c0,0.68-0.43,2.04-2.46,2.04c-1.11,0-1.81-0.38-2.22-0.7v-1.75h0.45c0.17,1.23,0.81,1.91,1.78,1.91
		c0.88,0,1.35-0.5,1.35-1.18c0-0.58-0.23-0.94-1.22-1.15c-1.46-0.31-2.3-0.59-2.3-1.92c0-0.69,0.42-1.91,2.2-1.91
		c0.98,0,1.66,0.31,1.97,0.56v1.46H58.7z"/>
	<path class="st2" d="M64.33,49.41c-0.15-0.77-0.24-0.88-0.97-0.88H62.6v2.64h1.19c0.93,0,1.23-0.01,1.42-1.28h0.44v1.79h-4.84
		v-0.44l0.56-0.03l0.07-0.08v-5.46l-0.07-0.08l-0.56-0.03v-0.44h4.74v1.54h-0.43c-0.26-0.99-0.42-1.03-1.33-1.03H62.6v2.41h0.75
		c0.78,0,0.83-0.11,0.98-0.89h0.42v2.27H64.33z"/>
	<path class="st2" d="M69.74,45.1c1.61,0,2.2,0.76,2.2,1.8c0,0.81-0.42,1.51-1.31,1.74l1.38,2.38c0.08,0.14,0.13,0.17,0.3,0.2
		l0.4,0.08v0.39h-1.64c-0.22-0.48-1.3-2.43-1.52-2.91h-0.72v2.35l0.07,0.08l0.51,0.03v0.44h-2.35v-0.44l0.55-0.03l0.08-0.08v-5.47
		l-0.08-0.08l-0.55-0.03V45.1H69.74z M69.58,45.6h-0.77v2.67h0.73c0.63,0,1.13-0.48,1.13-1.37C70.68,46,70.22,45.6,69.58,45.6z"/>
	<path class="st2" d="M4.57,57.07l-0.54-0.03V56.6h1.84v0.44l-0.5,0.03L5.3,57.16v3.66c0,1.63-0.78,2.45-2.38,2.45
		c-1.98,0-2.46-1.12-2.46-2.41v-3.69l-0.06-0.08l-0.55-0.03V56.6H2.2v0.44l-0.53,0.03c0,0.02-0.05,0.08-0.06,0.08v3.74
		c0,0.94,0.25,1.77,1.52,1.77c1.43,0,1.51-1.02,1.51-1.84v-3.66L4.57,57.07z"/>
	<path class="st2" d="M12.1,61.48l-0.01-4.32l-0.07-0.08l-0.57-0.03V56.6h1.9v0.44l-0.52,0.03l-0.08,0.08v6.03h-0.92l-3.3-5.17H8.51
		v4.61l0.09,0.08l0.5,0.03v0.44H7.22v-0.44l0.56-0.03l0.07-0.08v-5.47l-0.07-0.08l-0.55-0.03V56.6h1.73l3.13,4.87H12.1z"/>
	<path class="st2" d="M16.61,62.71l0.52,0.03v0.44h-2.35v-0.44l0.55-0.03l0.07-0.08v-5.47l-0.07-0.08l-0.55-0.03V56.6h2.35v0.44
		l-0.52,0.03l-0.07,0.08v5.47L16.61,62.71z"/>
	<path class="st2" d="M20.84,63.19l-1.92-6.02l-0.07-0.08l-0.44-0.03v-0.44h2.35v0.44l-0.59,0.03l-0.07,0.08l1.45,4.73h0.05
		c0.22-0.73,1.25-4,1.46-4.73l-0.06-0.08l-0.6-0.03v-0.44h1.9v0.44l-0.46,0.03l-0.07,0.08l-1.94,6.02H20.84z"/>
	<path class="st2" d="M29.12,60.91c-0.15-0.77-0.24-0.88-0.97-0.88h-0.76v2.64h1.19c0.93,0,1.23-0.01,1.42-1.28h0.44v1.79H25.6
		v-0.44l0.56-0.03l0.07-0.08v-5.46l-0.07-0.08l-0.56-0.03v-0.44h4.74v1.54h-0.43c-0.26-0.99-0.42-1.03-1.33-1.03h-1.19v2.41h0.75
		c0.78,0,0.83-0.11,0.98-0.89h0.42v2.27H29.12z"/>
	<path class="st2" d="M34.53,56.6c1.61,0,2.2,0.76,2.2,1.8c0,0.81-0.42,1.51-1.31,1.74l1.38,2.38c0.08,0.14,0.13,0.17,0.3,0.2
		l0.4,0.08v0.39h-1.64c-0.22-0.48-1.3-2.43-1.52-2.91h-0.72v2.35l0.07,0.08l0.51,0.03v0.44h-2.35v-0.44l0.55-0.03l0.08-0.08v-5.47
		l-0.08-0.08l-0.55-0.03V56.6H34.53z M34.37,57.1H33.6v2.67h0.73c0.63,0,1.13-0.48,1.13-1.37C35.46,57.5,35,57.1,34.37,57.1z"/>
	<path class="st2" d="M42.51,58.58c-0.25-1.03-0.85-1.52-1.57-1.52s-1.13,0.47-1.13,1.04c0,0.65,0.37,0.92,1.51,1.11
		c1.43,0.25,2.09,0.83,2.09,2c0,0.68-0.43,2.04-2.46,2.04c-1.11,0-1.81-0.38-2.22-0.7v-1.75h0.45c0.17,1.23,0.81,1.91,1.78,1.91
		c0.88,0,1.35-0.5,1.35-1.18c0-0.58-0.23-0.93-1.22-1.15c-1.45-0.31-2.3-0.58-2.3-1.92c0-0.69,0.42-1.91,2.2-1.91
		c0.98,0,1.66,0.31,1.97,0.56v1.46H42.51z"/>
	<path class="st2" d="M46.46,62.71l0.52,0.03v0.44h-2.35v-0.44l0.55-0.03l0.07-0.08v-5.47l-0.07-0.08l-0.55-0.03V56.6h2.35v0.44
		l-0.52,0.03l-0.07,0.08v5.47L46.46,62.71z"/>
	<path class="st2" d="M48.7,58.2h-0.43v-1.59h5.17v1.59h-0.43c-0.21-1.02-0.4-1.08-1.31-1.08h-0.26v5.51l0.07,0.08L52,62.74v0.44
		h-2.36v-0.44l0.56-0.03l0.07-0.08v-5.51h-0.25C49.09,57.12,48.92,57.21,48.7,58.2z"/>
	<path class="st2" d="M57.88,60.51v2.12l0.07,0.08l0.52,0.03v0.44H56.1v-0.44l0.56-0.03l0.07-0.08V60.6l-1.62-3.44l-0.08-0.08
		l-0.45-0.03V56.6h2.38v0.44l-0.59,0.03l-0.07,0.08l1.22,2.62h0.05l1.22-2.62l-0.06-0.08l-0.6-0.03V56.6h1.9v0.44l-0.45,0.03
		l-0.07,0.08L57.88,60.51z"/>
</g>
</svg>
